ISO-10303-21;
HEADER;
FILE_DESCRIPTION(('Open CASCADE Model'),'2;1');
FILE_NAME('Open CASCADE Shape Model','2026-08-19T01:53:28',('Author'),(
    'Open CASCADE'),'Open CASCADE STEP processor 7.9','Open CASCADE 7.9'
  ,'Unknown');
FILE_SCHEMA(('AUTOMOTIVE_DESIGN { 1 0 10303 214 1 1 1 1 }'));
ENDSEC;
DATA;
#1 = APPLICATION_PROTOCOL_DEFINITION('international standard',
  'automotive_design',2000,#2);
#2 = APPLICATION_CONTEXT(
  'core data for automotive mechanical design processes');
#3 = SHAPE_DEFINITION_REPRESENTATION(#4,#10);
#4 = PRODUCT_DEFINITION_SHAPE('','',#5);
#5 = PRODUCT_DEFINITION('design','',#6,#9);
#6 = PRODUCT_DEFINITION_FORMATION('','',#7);
#7 = PRODUCT('Open CASCADE STEP translator 7.9 1',
  'Open CASCADE STEP translator 7.9 1','',(#8));
#8 = PRODUCT_CONTEXT('',#2,'mechanical');
#9 = PRODUCT_DEFINITION_CONTEXT('part definition',#2,'design');
#10 = ADVANCED_BREP_SHAPE_REPRESENTATION('',(#11,#15),#603);
#11 = AXIS2_PLACEMENT_3D('',#12,#13,#14);
#12 = CARTESIAN_POINT('',(0.,0.,0.));
#13 = DIRECTION('',(0.,0.,1.));
#14 = DIRECTION('',(1.,0.,-0.));
#15 = MANIFOLD_SOLID_BREP('',#16);
#16 = CLOSED_SHELL('',(#17,#312,#450,#543,#593,#598));
#17 = ADVANCED_FACE('',(#18),#44,.T.);
#18 = FACE_BOUND('',#19,.T.);
#19 = EDGE_LOOP('',(#20,#128,#203,#294));
#20 = ORIENTED_EDGE('',*,*,#21,.T.);
#21 = EDGE_CURVE('',#22,#24,#26,.T.);
#22 = VERTEX_POINT('',#23);
#23 = CARTESIAN_POINT('',(2.551784974519E+03,-5.E+03,446.86378975335));
#24 = VERTEX_POINT('',#25);
#25 = CARTESIAN_POINT('',(3.270798239542E+03,-5.E+03,409.18190125843));
#26 = SURFACE_CURVE('',#27,(#43,#104),.PCURVE_S1.);
#27 = B_SPLINE_CURVE_WITH_KNOTS('',8,(#28,#29,#30,#31,#32,#33,#34,#35,
    #36,#37,#38,#39,#40,#41,#42),.UNSPECIFIED.,.F.,.F.,(9,6,9),(0.,
    0.508827561859,1.),.UNSPECIFIED.);
#28 = CARTESIAN_POINT('',(2.551784974519E+03,-5.E+03,446.86378975335));
#29 = CARTESIAN_POINT('',(2.562235265974E+03,-5.E+03,496.09501643512));
#30 = CARTESIAN_POINT('',(2.677504745523E+03,-5.000000000002E+03,
    463.82408133874));
#31 = CARTESIAN_POINT('',(2.620576592375E+03,-4.999999999995E+03,
    522.30638833279));
#32 = CARTESIAN_POINT('',(2.776141944354E+03,-5.000000000006E+03,
    472.56739014503));
#33 = CARTESIAN_POINT('',(2.749247252728E+03,-4.999999999996E+03,
    505.27855487484));
#34 = CARTESIAN_POINT('',(2.826518813723E+03,-5.000000000001E+03,
    488.41757692101));
#35 = CARTESIAN_POINT('',(2.908023366118E+03,-4.999999999999E+03,
    483.30585015293));
#36 = CARTESIAN_POINT('',(3.00803125841E+03,-5.E+03,465.99615910207));
#37 = CARTESIAN_POINT('',(3.0420826339E+03,-5.000000000001E+03,
    462.5791610855));
#38 = CARTESIAN_POINT('',(3.101929810511E+03,-4.999999999997E+03,
    448.04304333079));
#39 = CARTESIAN_POINT('',(3.133168257522E+03,-5.000000000003E+03,
    444.01670385508));
#40 = CARTESIAN_POINT('',(3.184751274768E+03,-4.999999999998E+03,
    431.10345376689));
#41 = CARTESIAN_POINT('',(3.226573389811E+03,-5.E+03,421.12870196636));
#42 = CARTESIAN_POINT('',(3.270798239542E+03,-5.E+03,409.18190125843));
#43 = PCURVE('',#44,#99);
#44 = B_SPLINE_SURFACE_WITH_KNOTS('',8,1,(
    (#45,#46)
    ,(#47,#48)
    ,(#49,#50)
    ,(#51,#52)
    ,(#53,#54)
    ,(#55,#56)
    ,(#57,#58)
    ,(#59,#60)
    ,(#61,#62)
    ,(#63,#64)
    ,(#65,#66)
    ,(#67,#68)
    ,(#69,#70)
    ,(#71,#72)
    ,(#73,#74)
    ,(#75,#76)
    ,(#77,#78)
    ,(#79,#80)
    ,(#81,#82)
    ,(#83,#84)
    ,(#85,#86)
    ,(#87,#88)
    ,(#89,#90)
    ,(#91,#92)
    ,(#93,#94)
    ,(#95,#96)
    ,(#97,#98
    )),.UNSPECIFIED.,.F.,.F.,.F.,(9,6,6,6,9),(2,2),(0.,0.262719809722,
    0.508827561859,0.754135554312,1.),(0.,1.),.UNSPECIFIED.);
#45 = CARTESIAN_POINT('',(2.551784974519E+03,-5.E+03,446.86378975335));
#46 = CARTESIAN_POINT('',(0.,0.,0.));
#47 = CARTESIAN_POINT('',(2.557180709319E+03,-5.E+03,472.28304664058));
#48 = CARTESIAN_POINT('',(2.363798639754,0.,58.514741729013));
#49 = CARTESIAN_POINT('',(2.590520225663E+03,-5.E+03,475.97461563422));
#50 = CARTESIAN_POINT('',(100.76517775847,0.,65.296084302353));
#51 = CARTESIAN_POINT('',(2.613673004268E+03,-5.E+03,481.64892695449));
#52 = CARTESIAN_POINT('',(120.65195480779,0.,86.600487830044));
#53 = CARTESIAN_POINT('',(2.635536376484E+03,-5.E+03,486.63294895295));
#54 = CARTESIAN_POINT('',(172.36368525817,0.,100.2184571617));
#55 = CARTESIAN_POINT('',(2.659144592946E+03,-5.E+03,489.7907935585));
#56 = CARTESIAN_POINT('',(246.05046000803,0.,105.40097663183));
#57 = CARTESIAN_POINT('',(2.683772097966E+03,-5.E+03,491.5317717911));
#58 = CARTESIAN_POINT('',(285.92542423051,0.,114.55924128278));
#59 = CARTESIAN_POINT('',(2.731665778276E+03,-5.E+03,493.13417156568));
#60 = CARTESIAN_POINT('',(394.28683923432,0.,123.52666719186));
#61 = CARTESIAN_POINT('',(2.778705647911E+03,-5.E+03,492.22975724262));
#62 = CARTESIAN_POINT('',(497.49528285329,0.,127.44548761374));
#63 = CARTESIAN_POINT('',(2.800987709235E+03,-5.E+03,491.40753498426));
#64 = CARTESIAN_POINT('',(547.88634993293,0.,127.83966444245));
#65 = CARTESIAN_POINT('',(2.822983375138E+03,-5.E+03,490.20359228641));
#66 = CARTESIAN_POINT('',(598.65319056687,0.,126.97915233058));
#67 = CARTESIAN_POINT('',(2.845894211008E+03,-5.E+03,488.16855617386));
#68 = CARTESIAN_POINT('',(649.42880477687,0.,125.17430506898));
#69 = CARTESIAN_POINT('',(2.870621666662E+03,-5.E+03,484.88974894123));
#70 = CARTESIAN_POINT('',(700.06193505763,0.,122.62734096679));
#71 = CARTESIAN_POINT('',(2.913063154203E+03,-5.E+03,480.80295200477));
#72 = CARTESIAN_POINT('',(800.90048008166,0.,116.26940747485));
#73 = CARTESIAN_POINT('',(2.959973002824E+03,-5.E+03,473.77047557732));
#74 = CARTESIAN_POINT('',(901.42183332979,0.,107.58238620044));
#75 = CARTESIAN_POINT('',(2.982069791377E+03,-5.E+03,470.5260044492));
#76 = CARTESIAN_POINT('',(951.57341109153,0.,102.71805867807));
#77 = CARTESIAN_POINT('',(3.004171069268E+03,-5.E+03,467.04000041161));
#78 = CARTESIAN_POINT('',(1.001790452652E+03,0.,97.327076605152));
#79 = CARTESIAN_POINT('',(3.026521991703E+03,-5.E+03,463.22580985777));
#80 = CARTESIAN_POINT('',(1.05208831912E+03,0.,91.404022727));
#81 = CARTESIAN_POINT('',(3.048949614313E+03,-5.E+03,459.15926631979));
#82 = CARTESIAN_POINT('',(1.102221252562E+03,0.,85.015264104097));
#83 = CARTESIAN_POINT('',(3.093747155029E+03,-5.E+03,450.62446310328));
#84 = CARTESIAN_POINT('',(1.201685110841E+03,0.,71.501945672414));
#85 = CARTESIAN_POINT('',(3.138198901931E+03,-5.E+03,441.36008563854));
#86 = CARTESIAN_POINT('',(1.302270272103E+03,0.,55.96621296964));
#87 = CARTESIAN_POINT('',(3.160331067697E+03,-5.E+03,436.55398074772));
#88 = CARTESIAN_POINT('',(1.351370594891E+03,0.,47.91038107662));
#89 = CARTESIAN_POINT('',(3.18241190674E+03,-5.E+03,431.55067478146));
#90 = CARTESIAN_POINT('',(1.401584374835E+03,0.,39.244104507052));
#91 = CARTESIAN_POINT('',(3.204666319281E+03,-5.E+03,426.2559214204));
#92 = CARTESIAN_POINT('',(1.451766525323E+03,0.,30.108379439897));
#93 = CARTESIAN_POINT('',(3.227125332602E+03,-5.E+03,420.64810665895));
#94 = CARTESIAN_POINT('',(1.500708242669E+03,0.,20.653672775479));
#95 = CARTESIAN_POINT('',(3.248660763332E+03,-5.E+03,415.16206892604));
#96 = CARTESIAN_POINT('',(1.550639040203E+03,0.,10.557910880312));
#97 = CARTESIAN_POINT('',(3.270798239542E+03,-5.E+03,409.18190125843));
#98 = CARTESIAN_POINT('',(1.6E+03,0.,-2.658633734116E-14));
#99 = DEFINITIONAL_REPRESENTATION('',(#100),#103);
#100 = B_SPLINE_CURVE_WITH_KNOTS('',1,(#101,#102),.UNSPECIFIED.,.F.,.F.,
  (2,2),(0.,1.),.PIECEWISE_BEZIER_KNOTS.);
#101 = CARTESIAN_POINT('',(0.,0.));
#102 = CARTESIAN_POINT('',(1.,0.));
#103 = ( GEOMETRIC_REPRESENTATION_CONTEXT(2) 
PARAMETRIC_REPRESENTATION_CONTEXT() REPRESENTATION_CONTEXT('2D SPACE',''
  ) );
#104 = PCURVE('',#105,#110);
#105 = PLANE('',#106);
#106 = AXIS2_PLACEMENT_3D('',#107,#108,#109);
#107 = CARTESIAN_POINT('',(2.551784974519E+03,-5.E+03,446.86378975335));
#108 = DIRECTION('',(5.29595032516E-14,-1.,1.010527520458E-12));
#109 = DIRECTION('',(0.998629534755,1.645584815845E-30,
    -5.233595624294E-02));
#110 = DEFINITIONAL_REPRESENTATION('',(#111),#127);
#111 = B_SPLINE_CURVE_WITH_KNOTS('',8,(#112,#113,#114,#115,#116,#117,
    #118,#119,#120,#121,#122,#123,#124,#125,#126),.UNSPECIFIED.,.F.,.F.,
  (9,6,9),(0.,0.508827561859,1.),.UNSPECIFIED.);
#112 = CARTESIAN_POINT('',(0.,0.));
#113 = CARTESIAN_POINT('',(7.859406367697,49.710682992894));
#114 = CARTESIAN_POINT('',(124.65984334852,23.516712529339));
#115 = CARTESIAN_POINT('',(64.748980796602,78.939482222066));
#116 = CARTESIAN_POINT('',(222.70427389956,37.410311056731));
#117 = CARTESIAN_POINT('',(194.13447042792,68.669086868049));
#118 = CARTESIAN_POINT('',(272.18256883828,55.875297333546));
#119 = CARTESIAN_POINT('',(353.84294918556,55.036194697112));
#120 = CARTESIAN_POINT('',(454.6197033703,42.984234651179));
#121 = CARTESIAN_POINT('',(488.80324449191,41.354030809274));
#122 = CARTESIAN_POINT('',(549.32916425003,29.969993515124));
#123 = CARTESIAN_POINT('',(580.7355223822,27.584065993629));
#124 = CARTESIAN_POINT('',(632.92367418713,17.388159599342));
#125 = CARTESIAN_POINT('',(675.21051164927,9.615878232387));
#126 = CARTESIAN_POINT('',(720.,0.));
#127 = ( GEOMETRIC_REPRESENTATION_CONTEXT(2) 
PARAMETRIC_REPRESENTATION_CONTEXT() REPRESENTATION_CONTEXT('2D SPACE',''
  ) );
#128 = ORIENTED_EDGE('',*,*,#129,.T.);
#129 = EDGE_CURVE('',#24,#130,#132,.T.);
#130 = VERTEX_POINT('',#131);
#131 = CARTESIAN_POINT('',(1.6E+03,0.,-1.93501326797E-21));
#132 = SURFACE_CURVE('',#133,(#136,#142),.PCURVE_S1.);
#133 = B_SPLINE_CURVE_WITH_KNOTS('',1,(#134,#135),.UNSPECIFIED.,.F.,.F.,
  (2,2),(0.,1.),.PIECEWISE_BEZIER_KNOTS.);
#134 = CARTESIAN_POINT('',(3.270798239542E+03,-5.E+03,409.18190125843));
#135 = CARTESIAN_POINT('',(1.6E+03,0.,-2.658633734116E-14));
#136 = PCURVE('',#44,#137);
#137 = DEFINITIONAL_REPRESENTATION('',(#138),#141);
#138 = B_SPLINE_CURVE_WITH_KNOTS('',1,(#139,#140),.UNSPECIFIED.,.F.,.F.,
  (2,2),(0.,1.),.PIECEWISE_BEZIER_KNOTS.);
#139 = CARTESIAN_POINT('',(1.,0.));
#140 = CARTESIAN_POINT('',(1.,1.));
#141 = ( GEOMETRIC_REPRESENTATION_CONTEXT(2) 
PARAMETRIC_REPRESENTATION_CONTEXT() REPRESENTATION_CONTEXT('2D SPACE',''
  ) );
#142 = PCURVE('',#143,#198);
#143 = B_SPLINE_SURFACE_WITH_KNOTS('',8,1,(
    (#144,#145)
    ,(#146,#147)
    ,(#148,#149)
    ,(#150,#151)
    ,(#152,#153)
    ,(#154,#155)
    ,(#156,#157)
    ,(#158,#159)
    ,(#160,#161)
    ,(#162,#163)
    ,(#164,#165)
    ,(#166,#167)
    ,(#168,#169)
    ,(#170,#171)
    ,(#172,#173)
    ,(#174,#175)
    ,(#176,#177)
    ,(#178,#179)
    ,(#180,#181)
    ,(#182,#183)
    ,(#184,#185)
    ,(#186,#187)
    ,(#188,#189)
    ,(#190,#191)
    ,(#192,#193)
    ,(#194,#195)
    ,(#196,#197
    )),.UNSPECIFIED.,.F.,.F.,.F.,(9,6,6,6,9),(2,2),(0.,0.248515405711,
    0.495016244431,0.739054488323,1.),(0.,1.),.UNSPECIFIED.);
#144 = CARTESIAN_POINT('',(3.270798239542E+03,-5.E+03,409.18190125843));
#145 = CARTESIAN_POINT('',(1.6E+03,0.,2.658633734116E-14));
#146 = CARTESIAN_POINT('',(3.247978946275E+03,-5.E+03,408.5361593824));
#147 = CARTESIAN_POINT('',(1.549847257333E+03,0.,-3.88103434409));
#148 = CARTESIAN_POINT('',(3.225778576338E+03,-5.E+03,408.25003336826));
#149 = CARTESIAN_POINT('',(1.499265246746E+03,0.,-7.73502452708));
#150 = CARTESIAN_POINT('',(3.202763332981E+03,-5.E+03,407.61125372244));
#151 = CARTESIAN_POINT('',(1.449672952606E+03,0.,-11.25606991424));
#152 = CARTESIAN_POINT('',(3.17999289699E+03,-5.E+03,407.12709678627));
#153 = CARTESIAN_POINT('',(1.399019657944E+03,0.,-14.94528582541));
#154 = CARTESIAN_POINT('',(3.157427680777E+03,-5.E+03,406.77075176805));
#155 = CARTESIAN_POINT('',(1.34840914278E+03,0.,-18.56622837966));
#156 = CARTESIAN_POINT('',(3.134852760641E+03,-5.E+03,406.4327612326));
#157 = CARTESIAN_POINT('',(1.298884549287E+03,0.,-21.88300881448));
#158 = CARTESIAN_POINT('',(3.089740188608E+03,-5.E+03,405.7314366495));
#159 = CARTESIAN_POINT('',(1.19806872873E+03,0.,-28.88107661619));
#160 = CARTESIAN_POINT('',(3.044456170755E+03,-5.E+03,405.03941799113));
#161 = CARTESIAN_POINT('',(1.098516873438E+03,0.,-35.41391107689));
#162 = CARTESIAN_POINT('',(3.0218930243E+03,-5.E+03,404.71317202161));
#163 = CARTESIAN_POINT('',(1.048566721489E+03,0.,-38.65938232891));
#164 = CARTESIAN_POINT('',(2.999436242866E+03,-5.E+03,404.46866015017));
#165 = CARTESIAN_POINT('',(998.51876385161,0.,-41.87794234247));
#166 = CARTESIAN_POINT('',(2.977240156344E+03,-5.E+03,404.38960695494));
#167 = CARTESIAN_POINT('',(948.59736729604,0.,-45.01290855));
#168 = CARTESIAN_POINT('',(2.955071527656E+03,-5.E+03,404.37428902377));
#169 = CARTESIAN_POINT('',(898.77667401748,0.,-48.01138206499));
#170 = CARTESIAN_POINT('',(2.908604377303E+03,-5.E+03,403.32936474543));
#171 = CARTESIAN_POINT('',(799.64678664062,0.,-53.62963788936));
#172 = CARTESIAN_POINT('',(2.866375344878E+03,-5.E+03,404.7131443453));
#173 = CARTESIAN_POINT('',(700.33907678014,0.,-58.44466237769));
#174 = CARTESIAN_POINT('',(2.842209201312E+03,-5.E+03,403.95986206483));
#175 = CARTESIAN_POINT('',(650.8401929165,0.,-60.61452449068));
#176 = CARTESIAN_POINT('',(2.819744357528E+03,-5.E+03,404.24628562502));
#177 = CARTESIAN_POINT('',(601.23701844014,0.,-62.54278060911));
#178 = CARTESIAN_POINT('',(2.798162401315E+03,-5.E+03,404.99019495071));
#179 = CARTESIAN_POINT('',(551.66435466757,0.,-64.22127653847));
#180 = CARTESIAN_POINT('',(2.776350108079E+03,-5.E+03,405.66792554871));
#181 = CARTESIAN_POINT('',(502.43808949592,0.,-65.63434068294));
#182 = CARTESIAN_POINT('',(2.730358367597E+03,-5.E+03,406.96063206241));
#183 = CARTESIAN_POINT('',(401.38564022204,0.,-67.93699103829));
#184 = CARTESIAN_POINT('',(2.683591248986E+03,-5.E+03,409.01802053933));
#185 = CARTESIAN_POINT('',(295.22486085915,0.,-68.75834411627));
#186 = CARTESIAN_POINT('',(2.659502087475E+03,-5.E+03,410.56849254687));
#187 = CARTESIAN_POINT('',(254.87854130593,0.,-63.76193521486));
#188 = CARTESIAN_POINT('',(2.636318254071E+03,-5.E+03,413.17501353647));
#189 = CARTESIAN_POINT('',(183.56188485228,0.,-68.75155391517));
#190 = CARTESIAN_POINT('',(2.614692959266E+03,-5.E+03,417.24680512829));
#191 = CARTESIAN_POINT('',(131.56756249626,0.,-62.55684899941));
#192 = CARTESIAN_POINT('',(2.59178722315E+03,-5.E+03,421.39779100259));
#193 = CARTESIAN_POINT('',(108.17528033986,0.,-45.01714144001));
#194 = CARTESIAN_POINT('',(2.559219925938E+03,-5.E+03,422.57240515391));
#195 = CARTESIAN_POINT('',(13.308829786704,0.,-55.66413322634));
#196 = CARTESIAN_POINT('',(2.551784974519E+03,-5.E+03,446.86378975335));
#197 = CARTESIAN_POINT('',(0.,0.,0.));
#198 = DEFINITIONAL_REPRESENTATION('',(#199),#202);
#199 = B_SPLINE_CURVE_WITH_KNOTS('',1,(#200,#201),.UNSPECIFIED.,.F.,.F.,
  (2,2),(0.,1.),.PIECEWISE_BEZIER_KNOTS.);
#200 = CARTESIAN_POINT('',(0.,0.));
#201 = CARTESIAN_POINT('',(0.,1.));
#202 = ( GEOMETRIC_REPRESENTATION_CONTEXT(2) 
PARAMETRIC_REPRESENTATION_CONTEXT() REPRESENTATION_CONTEXT('2D SPACE',''
  ) );
#203 = ORIENTED_EDGE('',*,*,#204,.F.);
#204 = EDGE_CURVE('',#205,#130,#207,.T.);
#205 = VERTEX_POINT('',#206);
#206 = CARTESIAN_POINT('',(0.,0.,0.));
#207 = SURFACE_CURVE('',#208,(#227,#233),.PCURVE_S1.);
#208 = B_SPLINE_CURVE_WITH_KNOTS('',7,(#209,#210,#211,#212,#213,#214,
    #215,#216,#217,#218,#219,#220,#221,#222,#223,#224,#225,#226),
  .UNSPECIFIED.,.F.,.F.,(8,5,5,8),(0.,0.262719809722,0.754135554312,1.),
  .UNSPECIFIED.);
#209 = CARTESIAN_POINT('',(0.,0.,0.));
#210 = CARTESIAN_POINT('',(2.701484159719,0.,66.873990547443));
#211 = CARTESIAN_POINT('',(133.45307562472,0.,64.770115553989));
#212 = CARTESIAN_POINT('',(112.97128231763,0.,99.698711195678));
#213 = CARTESIAN_POINT('',(231.75608819872,0.,100.73820312772));
#214 = CARTESIAN_POINT('',(269.87441302354,0.,113.17226580535));
#215 = CARTESIAN_POINT('',(454.17171815127,0.,129.09748319339));
#216 = CARTESIAN_POINT('',(623.37677140615,0.,130.23612019328));
#217 = CARTESIAN_POINT('',(748.58951668613,0.,120.62107771816));
#218 = CARTESIAN_POINT('',(853.75261457959,0.,114.58919884835));
#219 = CARTESIAN_POINT('',(974.60941964287,0.,101.52631299039));
#220 = CARTESIAN_POINT('',(1.143954992811E+03,0.,80.661162908865));
#221 = CARTESIAN_POINT('',(1.316669239069E+03,0.,53.720177274303));
#222 = CARTESIAN_POINT('',(1.372191408384E+03,0.,44.42450335801));
#223 = CARTESIAN_POINT('',(1.430977341286E+03,0.,34.063705656095));
#224 = CARTESIAN_POINT('',(1.486415165385E+03,0.,23.516169079567));
#225 = CARTESIAN_POINT('',(1.543587474518E+03,0.,12.066183863213));
#226 = CARTESIAN_POINT('',(1.6E+03,0.,-2.658633734116E-14));
#227 = PCURVE('',#44,#228);
#228 = DEFINITIONAL_REPRESENTATION('',(#229),#232);
#229 = B_SPLINE_CURVE_WITH_KNOTS('',1,(#230,#231),.UNSPECIFIED.,.F.,.F.,
  (2,2),(0.,1.),.PIECEWISE_BEZIER_KNOTS.);
#230 = CARTESIAN_POINT('',(0.,1.));
#231 = CARTESIAN_POINT('',(1.,1.));
#232 = ( GEOMETRIC_REPRESENTATION_CONTEXT(2) 
PARAMETRIC_REPRESENTATION_CONTEXT() REPRESENTATION_CONTEXT('2D SPACE',''
  ) );
#233 = PCURVE('',#234,#289);
#234 = B_SPLINE_SURFACE_WITH_KNOTS('',8,1,(
    (#235,#236)
    ,(#237,#238)
    ,(#239,#240)
    ,(#241,#242)
    ,(#243,#244)
    ,(#245,#246)
    ,(#247,#248)
    ,(#249,#250)
    ,(#251,#252)
    ,(#253,#254)
    ,(#255,#256)
    ,(#257,#258)
    ,(#259,#260)
    ,(#261,#262)
    ,(#263,#264)
    ,(#265,#266)
    ,(#267,#268)
    ,(#269,#270)
    ,(#271,#272)
    ,(#273,#274)
    ,(#275,#276)
    ,(#277,#278)
    ,(#279,#280)
    ,(#281,#282)
    ,(#283,#284)
    ,(#285,#286)
    ,(#287,#288
    )),.UNSPECIFIED.,.F.,.F.,.F.,(9,6,6,6,9),(2,2),(0.,0.262719809722,
    0.508827561859,0.754135554312,1.),(0.,1.),.UNSPECIFIED.);
#235 = CARTESIAN_POINT('',(0.,0.,0.));
#236 = CARTESIAN_POINT('',(2.551784974519E+03,5.E+03,446.86378975335));
#237 = CARTESIAN_POINT('',(2.363798639754,0.,58.514741729013));
#238 = CARTESIAN_POINT('',(2.557180709319E+03,5.E+03,472.28304664058));
#239 = CARTESIAN_POINT('',(100.76517775847,0.,65.296084302353));
#240 = CARTESIAN_POINT('',(2.590520225663E+03,5.E+03,475.97461563422));
#241 = CARTESIAN_POINT('',(120.65195480779,0.,86.600487830044));
#242 = CARTESIAN_POINT('',(2.613673004268E+03,5.E+03,481.64892695449));
#243 = CARTESIAN_POINT('',(172.36368525817,0.,100.2184571617));
#244 = CARTESIAN_POINT('',(2.635536376484E+03,5.E+03,486.63294895295));
#245 = CARTESIAN_POINT('',(246.05046000803,0.,105.40097663183));
#246 = CARTESIAN_POINT('',(2.659144592946E+03,5.E+03,489.7907935585));
#247 = CARTESIAN_POINT('',(285.92542423051,0.,114.55924128278));
#248 = CARTESIAN_POINT('',(2.683772097966E+03,5.E+03,491.5317717911));
#249 = CARTESIAN_POINT('',(394.28683923432,0.,123.52666719186));
#250 = CARTESIAN_POINT('',(2.731665778276E+03,5.E+03,493.13417156568));
#251 = CARTESIAN_POINT('',(497.49528285329,0.,127.44548761374));
#252 = CARTESIAN_POINT('',(2.778705647911E+03,5.E+03,492.22975724262));
#253 = CARTESIAN_POINT('',(547.88634993293,0.,127.83966444245));
#254 = CARTESIAN_POINT('',(2.800987709235E+03,5.E+03,491.40753498426));
#255 = CARTESIAN_POINT('',(598.65319056687,0.,126.97915233058));
#256 = CARTESIAN_POINT('',(2.822983375138E+03,5.E+03,490.20359228641));
#257 = CARTESIAN_POINT('',(649.42880477687,0.,125.17430506898));
#258 = CARTESIAN_POINT('',(2.845894211008E+03,5.E+03,488.16855617386));
#259 = CARTESIAN_POINT('',(700.06193505763,0.,122.62734096679));
#260 = CARTESIAN_POINT('',(2.870621666662E+03,5.E+03,484.88974894123));
#261 = CARTESIAN_POINT('',(800.90048008166,0.,116.26940747485));
#262 = CARTESIAN_POINT('',(2.913063154203E+03,5.E+03,480.80295200477));
#263 = CARTESIAN_POINT('',(901.42183332979,0.,107.58238620044));
#264 = CARTESIAN_POINT('',(2.959973002824E+03,5.E+03,473.77047557732));
#265 = CARTESIAN_POINT('',(951.57341109153,0.,102.71805867807));
#266 = CARTESIAN_POINT('',(2.982069791377E+03,5.E+03,470.5260044492));
#267 = CARTESIAN_POINT('',(1.001790452652E+03,0.,97.327076605152));
#268 = CARTESIAN_POINT('',(3.004171069268E+03,5.E+03,467.04000041161));
#269 = CARTESIAN_POINT('',(1.05208831912E+03,0.,91.404022727));
#270 = CARTESIAN_POINT('',(3.026521991703E+03,5.E+03,463.22580985777));
#271 = CARTESIAN_POINT('',(1.102221252562E+03,0.,85.015264104097));
#272 = CARTESIAN_POINT('',(3.048949614313E+03,5.E+03,459.15926631979));
#273 = CARTESIAN_POINT('',(1.201685110841E+03,0.,71.501945672414));
#274 = CARTESIAN_POINT('',(3.093747155029E+03,5.E+03,450.62446310328));
#275 = CARTESIAN_POINT('',(1.302270272103E+03,0.,55.96621296964));
#276 = CARTESIAN_POINT('',(3.138198901931E+03,5.E+03,441.36008563854));
#277 = CARTESIAN_POINT('',(1.351370594891E+03,0.,47.91038107662));
#278 = CARTESIAN_POINT('',(3.160331067697E+03,5.E+03,436.55398074772));
#279 = CARTESIAN_POINT('',(1.401584374835E+03,0.,39.244104507052));
#280 = CARTESIAN_POINT('',(3.18241190674E+03,5.E+03,431.55067478146));
#281 = CARTESIAN_POINT('',(1.451766525323E+03,0.,30.108379439897));
#282 = CARTESIAN_POINT('',(3.204666319281E+03,5.E+03,426.2559214204));
#283 = CARTESIAN_POINT('',(1.500708242669E+03,0.,20.653672775479));
#284 = CARTESIAN_POINT('',(3.227125332602E+03,5.E+03,420.64810665895));
#285 = CARTESIAN_POINT('',(1.550639040203E+03,0.,10.557910880312));
#286 = CARTESIAN_POINT('',(3.248660763332E+03,5.E+03,415.16206892604));
#287 = CARTESIAN_POINT('',(1.6E+03,0.,-2.658633734116E-14));
#288 = CARTESIAN_POINT('',(3.270798239542E+03,5.E+03,409.18190125843));
#289 = DEFINITIONAL_REPRESENTATION('',(#290),#293);
#290 = B_SPLINE_CURVE_WITH_KNOTS('',1,(#291,#292),.UNSPECIFIED.,.F.,.F.,
  (2,2),(0.,1.),.PIECEWISE_BEZIER_KNOTS.);
#291 = CARTESIAN_POINT('',(0.,0.));
#292 = CARTESIAN_POINT('',(1.,0.));
#293 = ( GEOMETRIC_REPRESENTATION_CONTEXT(2) 
PARAMETRIC_REPRESENTATION_CONTEXT() REPRESENTATION_CONTEXT('2D SPACE',''
  ) );
#294 = ORIENTED_EDGE('',*,*,#295,.F.);
#295 = EDGE_CURVE('',#22,#205,#296,.T.);
#296 = SURFACE_CURVE('',#297,(#300,#306),.PCURVE_S1.);
#297 = B_SPLINE_CURVE_WITH_KNOTS('',1,(#298,#299),.UNSPECIFIED.,.F.,.F.,
  (2,2),(0.,1.),.PIECEWISE_BEZIER_KNOTS.);
#298 = CARTESIAN_POINT('',(2.551784974519E+03,-5.E+03,446.86378975335));
#299 = CARTESIAN_POINT('',(0.,0.,0.));
#300 = PCURVE('',#44,#301);
#301 = DEFINITIONAL_REPRESENTATION('',(#302),#305);
#302 = B_SPLINE_CURVE_WITH_KNOTS('',1,(#303,#304),.UNSPECIFIED.,.F.,.F.,
  (2,2),(0.,1.),.PIECEWISE_BEZIER_KNOTS.);
#303 = CARTESIAN_POINT('',(0.,0.));
#304 = CARTESIAN_POINT('',(0.,1.));
#305 = ( GEOMETRIC_REPRESENTATION_CONTEXT(2) 
PARAMETRIC_REPRESENTATION_CONTEXT() REPRESENTATION_CONTEXT('2D SPACE',''
  ) );
#306 = PCURVE('',#143,#307);
#307 = DEFINITIONAL_REPRESENTATION('',(#308),#311);
#308 = B_SPLINE_CURVE_WITH_KNOTS('',1,(#309,#310),.UNSPECIFIED.,.F.,.F.,
  (2,2),(0.,1.),.PIECEWISE_BEZIER_KNOTS.);
#309 = CARTESIAN_POINT('',(1.,0.));
#310 = CARTESIAN_POINT('',(1.,1.));
#311 = ( GEOMETRIC_REPRESENTATION_CONTEXT(2) 
PARAMETRIC_REPRESENTATION_CONTEXT() REPRESENTATION_CONTEXT('2D SPACE',''
  ) );
#312 = ADVANCED_FACE('',(#313),#143,.T.);
#313 = FACE_BOUND('',#314,.T.);
#314 = EDGE_LOOP('',(#315,#359,#360,#449));
#315 = ORIENTED_EDGE('',*,*,#316,.F.);
#316 = EDGE_CURVE('',#22,#24,#317,.T.);
#317 = SURFACE_CURVE('',#318,(#334,#340),.PCURVE_S1.);
#318 = B_SPLINE_CURVE_WITH_KNOTS('',8,(#319,#320,#321,#322,#323,#324,
    #325,#326,#327,#328,#329,#330,#331,#332,#333),.UNSPECIFIED.,.F.,.F.,
  (9,6,9),(0.,0.504983755569,1.),.UNSPECIFIED.);
#319 = CARTESIAN_POINT('',(2.551784974519E+03,-5.E+03,446.86378975335));
#320 = CARTESIAN_POINT('',(2.566173149528E+03,-4.999999999999E+03,
    399.85491596915));
#321 = CARTESIAN_POINT('',(2.674682681456E+03,-5.000000000003E+03,
    439.41901153831));
#322 = CARTESIAN_POINT('',(2.625147920326E+03,-4.999999999994E+03,
    376.44842101725));
#323 = CARTESIAN_POINT('',(2.770943333718E+03,-5.000000000007E+03,
    430.65312119363));
#324 = CARTESIAN_POINT('',(2.748714239314E+03,-4.999999999995E+03,
    394.10082816008));
#325 = CARTESIAN_POINT('',(2.82264661176E+03,-5.000000000001E+03,
    406.87263516632));
#326 = CARTESIAN_POINT('',(2.904137646746E+03,-4.999999999999E+03,
    401.41793278407));
#327 = CARTESIAN_POINT('',(3.003241376468E+03,-5.000000000001E+03,
    406.05639456977));
#328 = CARTESIAN_POINT('',(3.038379206803E+03,-4.999999999999E+03,
    401.7307207998));
#329 = CARTESIAN_POINT('',(3.0976447022E+03,-5.000000000001E+03,
    409.2795617349));
#330 = CARTESIAN_POINT('',(3.130472959126E+03,-4.999999999999E+03,
    403.97448382022));
#331 = CARTESIAN_POINT('',(3.18234669644E+03,-5.E+03,408.0362293564));
#332 = CARTESIAN_POINT('',(3.225344635484E+03,-5.E+03,407.89565215275));
#333 = CARTESIAN_POINT('',(3.270798239542E+03,-5.E+03,409.18190125843));
#334 = PCURVE('',#143,#335);
#335 = DEFINITIONAL_REPRESENTATION('',(#336),#339);
#336 = B_SPLINE_CURVE_WITH_KNOTS('',1,(#337,#338),.UNSPECIFIED.,.F.,.F.,
  (2,2),(0.,1.),.PIECEWISE_BEZIER_KNOTS.);
#337 = CARTESIAN_POINT('',(1.,0.));
#338 = CARTESIAN_POINT('',(0.,0.));
#339 = ( GEOMETRIC_REPRESENTATION_CONTEXT(2) 
PARAMETRIC_REPRESENTATION_CONTEXT() REPRESENTATION_CONTEXT('2D SPACE',''
  ) );
#340 = PCURVE('',#105,#341);
#341 = DEFINITIONAL_REPRESENTATION('',(#342),#358);
#342 = B_SPLINE_CURVE_WITH_KNOTS('',8,(#343,#344,#345,#346,#347,#348,
    #349,#350,#351,#352,#353,#354,#355,#356,#357),.UNSPECIFIED.,.F.,.F.,
  (9,6,9),(0.,0.504983755569,1.),.UNSPECIFIED.);
#343 = CARTESIAN_POINT('',(0.,0.));
#344 = CARTESIAN_POINT('',(16.828710876727,-46.19143085875));
#345 = CARTESIAN_POINT('',(123.1189094879,-1.002606392616));
#346 = CARTESIAN_POINT('',(76.947660095838,-66.47934699892));
#347 = CARTESIAN_POINT('',(219.70641112468,-4.718590104545));
#348 = CARTESIAN_POINT('',(199.4207801304,-42.38417040292));
#349 = CARTESIAN_POINT('',(272.58340609757,-25.76054530499));
#350 = CARTESIAN_POINT('',(354.24823751734,-26.94286096599));
#351 = CARTESIAN_POINT('',(452.97339068927,-17.1240675687));
#352 = CARTESIAN_POINT('',(488.28945412186,-19.60484120224));
#353 = CARTESIAN_POINT('',(547.07865240828,-8.964629317478));
#354 = CARTESIAN_POINT('',(580.13956567434,-12.54433858925));
#355 = CARTESIAN_POINT('',(631.72963649731,-5.773297887956));
#356 = CARTESIAN_POINT('',(674.67600560304,-3.663344179069));
#357 = CARTESIAN_POINT('',(720.,0.));
#358 = ( GEOMETRIC_REPRESENTATION_CONTEXT(2) 
PARAMETRIC_REPRESENTATION_CONTEXT() REPRESENTATION_CONTEXT('2D SPACE',''
  ) );
#359 = ORIENTED_EDGE('',*,*,#295,.T.);
#360 = ORIENTED_EDGE('',*,*,#361,.T.);
#361 = EDGE_CURVE('',#205,#130,#362,.T.);
#362 = SURFACE_CURVE('',#363,(#382,#388),.PCURVE_S1.);
#363 = B_SPLINE_CURVE_WITH_KNOTS('',7,(#364,#365,#366,#367,#368,#369,
    #370,#371,#372,#373,#374,#375,#376,#377,#378,#379,#380,#381),
  .UNSPECIFIED.,.F.,.F.,(8,5,5,8),(0.,0.260945511677,0.751484594289,1.),
  .UNSPECIFIED.);
#364 = CARTESIAN_POINT('',(0.,0.,0.));
#365 = CARTESIAN_POINT('',(15.210091184804,0.,-63.61615225868));
#366 = CARTESIAN_POINT('',(139.16367672487,0.,-38.81747116712));
#367 = CARTESIAN_POINT('',(127.0098939591,0.,-76.80047569879));
#368 = CARTESIAN_POINT('',(240.11387574546,0.,-60.70263213156));
#369 = CARTESIAN_POINT('',(279.48631724005,0.,-68.86077368701));
#370 = CARTESIAN_POINT('',(460.78505643315,0.,-67.6808454496));
#371 = CARTESIAN_POINT('',(627.0002640369,0.,-62.12704279784));
#372 = CARTESIAN_POINT('',(749.66459723702,0.,-57.23133654157));
#373 = CARTESIAN_POINT('',(853.8666765047,0.,-51.30584114777));
#374 = CARTESIAN_POINT('',(972.71725211079,0.,-43.50503990171));
#375 = CARTESIAN_POINT('',(1.141160652677E+03,0.,-32.88067928092));
#376 = CARTESIAN_POINT('',(1.313360592157E+03,0.,-20.87363260354));
#377 = CARTESIAN_POINT('',(1.369438273153E+03,0.,-17.18178584534));
#378 = CARTESIAN_POINT('',(1.428601042734E+03,0.,-12.70878580548));
#379 = CARTESIAN_POINT('',(1.484792802391E+03,0.,-8.834876762167));
#380 = CARTESIAN_POINT('',(1.542682579809E+03,0.,-4.435467821817));
#381 = CARTESIAN_POINT('',(1.6E+03,0.,2.658633734116E-14));
#382 = PCURVE('',#143,#383);
#383 = DEFINITIONAL_REPRESENTATION('',(#384),#387);
#384 = B_SPLINE_CURVE_WITH_KNOTS('',1,(#385,#386),.UNSPECIFIED.,.F.,.F.,
  (2,2),(0.,1.),.PIECEWISE_BEZIER_KNOTS.);
#385 = CARTESIAN_POINT('',(1.,1.));
#386 = CARTESIAN_POINT('',(0.,1.));
#387 = ( GEOMETRIC_REPRESENTATION_CONTEXT(2) 
PARAMETRIC_REPRESENTATION_CONTEXT() REPRESENTATION_CONTEXT('2D SPACE',''
  ) );
#388 = PCURVE('',#389,#444);
#389 = B_SPLINE_SURFACE_WITH_KNOTS('',8,1,(
    (#390,#391)
    ,(#392,#393)
    ,(#394,#395)
    ,(#396,#397)
    ,(#398,#399)
    ,(#400,#401)
    ,(#402,#403)
    ,(#404,#405)
    ,(#406,#407)
    ,(#408,#409)
    ,(#410,#411)
    ,(#412,#413)
    ,(#414,#415)
    ,(#416,#417)
    ,(#418,#419)
    ,(#420,#421)
    ,(#422,#423)
    ,(#424,#425)
    ,(#426,#427)
    ,(#428,#429)
    ,(#430,#431)
    ,(#432,#433)
    ,(#434,#435)
    ,(#436,#437)
    ,(#438,#439)
    ,(#440,#441)
    ,(#442,#443
    )),.UNSPECIFIED.,.F.,.F.,.F.,(9,6,6,6,9),(2,2),(0.,0.248515405711,
    0.495016244431,0.739054488323,1.),(0.,1.),.UNSPECIFIED.);
#390 = CARTESIAN_POINT('',(1.6E+03,0.,2.658633734116E-14));
#391 = CARTESIAN_POINT('',(3.270798239542E+03,5.E+03,409.18190125843));
#392 = CARTESIAN_POINT('',(1.549847257333E+03,0.,-3.88103434409));
#393 = CARTESIAN_POINT('',(3.247978946275E+03,5.E+03,408.5361593824));
#394 = CARTESIAN_POINT('',(1.499265246746E+03,0.,-7.73502452708));
#395 = CARTESIAN_POINT('',(3.225778576338E+03,5.E+03,408.25003336826));
#396 = CARTESIAN_POINT('',(1.449672952606E+03,0.,-11.25606991424));
#397 = CARTESIAN_POINT('',(3.202763332981E+03,5.E+03,407.61125372244));
#398 = CARTESIAN_POINT('',(1.399019657944E+03,0.,-14.94528582541));
#399 = CARTESIAN_POINT('',(3.17999289699E+03,5.E+03,407.12709678627));
#400 = CARTESIAN_POINT('',(1.34840914278E+03,0.,-18.56622837966));
#401 = CARTESIAN_POINT('',(3.157427680777E+03,5.E+03,406.77075176805));
#402 = CARTESIAN_POINT('',(1.298884549287E+03,0.,-21.88300881448));
#403 = CARTESIAN_POINT('',(3.134852760641E+03,5.E+03,406.4327612326));
#404 = CARTESIAN_POINT('',(1.19806872873E+03,0.,-28.88107661619));
#405 = CARTESIAN_POINT('',(3.089740188608E+03,5.E+03,405.7314366495));
#406 = CARTESIAN_POINT('',(1.098516873438E+03,0.,-35.41391107689));
#407 = CARTESIAN_POINT('',(3.044456170755E+03,5.E+03,405.03941799113));
#408 = CARTESIAN_POINT('',(1.048566721489E+03,0.,-38.65938232891));
#409 = CARTESIAN_POINT('',(3.0218930243E+03,5.E+03,404.71317202161));
#410 = CARTESIAN_POINT('',(998.51876385161,0.,-41.87794234247));
#411 = CARTESIAN_POINT('',(2.999436242866E+03,5.E+03,404.46866015017));
#412 = CARTESIAN_POINT('',(948.59736729604,0.,-45.01290855));
#413 = CARTESIAN_POINT('',(2.977240156344E+03,5.E+03,404.38960695494));
#414 = CARTESIAN_POINT('',(898.77667401748,0.,-48.01138206499));
#415 = CARTESIAN_POINT('',(2.955071527656E+03,5.E+03,404.37428902377));
#416 = CARTESIAN_POINT('',(799.64678664062,0.,-53.62963788936));
#417 = CARTESIAN_POINT('',(2.908604377303E+03,5.E+03,403.32936474543));
#418 = CARTESIAN_POINT('',(700.33907678014,0.,-58.44466237769));
#419 = CARTESIAN_POINT('',(2.866375344878E+03,5.E+03,404.7131443453));
#420 = CARTESIAN_POINT('',(650.8401929165,0.,-60.61452449068));
#421 = CARTESIAN_POINT('',(2.842209201312E+03,5.E+03,403.95986206483));
#422 = CARTESIAN_POINT('',(601.23701844014,0.,-62.54278060911));
#423 = CARTESIAN_POINT('',(2.819744357528E+03,5.E+03,404.24628562502));
#424 = CARTESIAN_POINT('',(551.66435466757,0.,-64.22127653847));
#425 = CARTESIAN_POINT('',(2.798162401315E+03,5.E+03,404.99019495071));
#426 = CARTESIAN_POINT('',(502.43808949592,0.,-65.63434068294));
#427 = CARTESIAN_POINT('',(2.776350108079E+03,5.E+03,405.66792554871));
#428 = CARTESIAN_POINT('',(401.38564022204,0.,-67.93699103829));
#429 = CARTESIAN_POINT('',(2.730358367597E+03,5.E+03,406.96063206241));
#430 = CARTESIAN_POINT('',(295.22486085915,0.,-68.75834411627));
#431 = CARTESIAN_POINT('',(2.683591248986E+03,5.E+03,409.01802053933));
#432 = CARTESIAN_POINT('',(254.87854130593,0.,-63.76193521486));
#433 = CARTESIAN_POINT('',(2.659502087475E+03,5.E+03,410.56849254687));
#434 = CARTESIAN_POINT('',(183.56188485228,0.,-68.75155391517));
#435 = CARTESIAN_POINT('',(2.636318254071E+03,5.E+03,413.17501353647));
#436 = CARTESIAN_POINT('',(131.56756249626,0.,-62.55684899941));
#437 = CARTESIAN_POINT('',(2.614692959266E+03,5.E+03,417.24680512829));
#438 = CARTESIAN_POINT('',(108.17528033986,0.,-45.01714144001));
#439 = CARTESIAN_POINT('',(2.59178722315E+03,5.E+03,421.39779100259));
#440 = CARTESIAN_POINT('',(13.308829786704,0.,-55.66413322634));
#441 = CARTESIAN_POINT('',(2.559219925938E+03,5.E+03,422.57240515391));
#442 = CARTESIAN_POINT('',(0.,0.,0.));
#443 = CARTESIAN_POINT('',(2.551784974519E+03,5.E+03,446.86378975335));
#444 = DEFINITIONAL_REPRESENTATION('',(#445),#448);
#445 = B_SPLINE_CURVE_WITH_KNOTS('',1,(#446,#447),.UNSPECIFIED.,.F.,.F.,
  (2,2),(0.,1.),.PIECEWISE_BEZIER_KNOTS.);
#446 = CARTESIAN_POINT('',(1.,0.));
#447 = CARTESIAN_POINT('',(0.,0.));
#448 = ( GEOMETRIC_REPRESENTATION_CONTEXT(2) 
PARAMETRIC_REPRESENTATION_CONTEXT() REPRESENTATION_CONTEXT('2D SPACE',''
  ) );
#449 = ORIENTED_EDGE('',*,*,#129,.F.);
#450 = ADVANCED_FACE('',(#451),#234,.T.);
#451 = FACE_BOUND('',#452,.T.);
#452 = EDGE_LOOP('',(#453,#454,#474,#525));
#453 = ORIENTED_EDGE('',*,*,#204,.T.);
#454 = ORIENTED_EDGE('',*,*,#455,.T.);
#455 = EDGE_CURVE('',#130,#456,#458,.T.);
#456 = VERTEX_POINT('',#457);
#457 = CARTESIAN_POINT('',(3.270798239542E+03,5.E+03,409.18190125843));
#458 = SURFACE_CURVE('',#459,(#462,#468),.PCURVE_S1.);
#459 = B_SPLINE_CURVE_WITH_KNOTS('',1,(#460,#461),.UNSPECIFIED.,.F.,.F.,
  (2,2),(0.,1.),.PIECEWISE_BEZIER_KNOTS.);
#460 = CARTESIAN_POINT('',(1.6E+03,0.,-2.658633734116E-14));
#461 = CARTESIAN_POINT('',(3.270798239542E+03,5.E+03,409.18190125843));
#462 = PCURVE('',#234,#463);
#463 = DEFINITIONAL_REPRESENTATION('',(#464),#467);
#464 = B_SPLINE_CURVE_WITH_KNOTS('',1,(#465,#466),.UNSPECIFIED.,.F.,.F.,
  (2,2),(0.,1.),.PIECEWISE_BEZIER_KNOTS.);
#465 = CARTESIAN_POINT('',(1.,0.));
#466 = CARTESIAN_POINT('',(1.,1.));
#467 = ( GEOMETRIC_REPRESENTATION_CONTEXT(2) 
PARAMETRIC_REPRESENTATION_CONTEXT() REPRESENTATION_CONTEXT('2D SPACE',''
  ) );
#468 = PCURVE('',#389,#469);
#469 = DEFINITIONAL_REPRESENTATION('',(#470),#473);
#470 = B_SPLINE_CURVE_WITH_KNOTS('',1,(#471,#472),.UNSPECIFIED.,.F.,.F.,
  (2,2),(0.,1.),.PIECEWISE_BEZIER_KNOTS.);
#471 = CARTESIAN_POINT('',(0.,0.));
#472 = CARTESIAN_POINT('',(0.,1.));
#473 = ( GEOMETRIC_REPRESENTATION_CONTEXT(2) 
PARAMETRIC_REPRESENTATION_CONTEXT() REPRESENTATION_CONTEXT('2D SPACE',''
  ) );
#474 = ORIENTED_EDGE('',*,*,#475,.F.);
#475 = EDGE_CURVE('',#476,#456,#478,.T.);
#476 = VERTEX_POINT('',#477);
#477 = CARTESIAN_POINT('',(2.551784974519E+03,5.E+03,446.86378975335));
#478 = SURFACE_CURVE('',#479,(#495,#501),.PCURVE_S1.);
#479 = B_SPLINE_CURVE_WITH_KNOTS('',8,(#480,#481,#482,#483,#484,#485,
    #486,#487,#488,#489,#490,#491,#492,#493,#494),.UNSPECIFIED.,.F.,.F.,
  (9,6,9),(0.,0.508827561859,1.),.UNSPECIFIED.);
#480 = CARTESIAN_POINT('',(2.551784974519E+03,5.E+03,446.86378975335));
#481 = CARTESIAN_POINT('',(2.562235265974E+03,5.E+03,496.09501643512));
#482 = CARTESIAN_POINT('',(2.677504745523E+03,5.000000000002E+03,
    463.82408133874));
#483 = CARTESIAN_POINT('',(2.620576592375E+03,4.999999999995E+03,
    522.30638833279));
#484 = CARTESIAN_POINT('',(2.776141944354E+03,5.000000000006E+03,
    472.56739014503));
#485 = CARTESIAN_POINT('',(2.749247252728E+03,4.999999999996E+03,
    505.27855487484));
#486 = CARTESIAN_POINT('',(2.826518813723E+03,5.000000000001E+03,
    488.41757692101));
#487 = CARTESIAN_POINT('',(2.908023366118E+03,4.999999999999E+03,
    483.30585015293));
#488 = CARTESIAN_POINT('',(3.00803125841E+03,5.E+03,465.99615910207));
#489 = CARTESIAN_POINT('',(3.0420826339E+03,5.000000000001E+03,
    462.5791610855));
#490 = CARTESIAN_POINT('',(3.101929810511E+03,4.999999999997E+03,
    448.04304333079));
#491 = CARTESIAN_POINT('',(3.133168257522E+03,5.000000000003E+03,
    444.01670385508));
#492 = CARTESIAN_POINT('',(3.184751274768E+03,4.999999999998E+03,
    431.10345376689));
#493 = CARTESIAN_POINT('',(3.226573389811E+03,5.E+03,421.12870196636));
#494 = CARTESIAN_POINT('',(3.270798239542E+03,5.E+03,409.18190125843));
#495 = PCURVE('',#234,#496);
#496 = DEFINITIONAL_REPRESENTATION('',(#497),#500);
#497 = B_SPLINE_CURVE_WITH_KNOTS('',1,(#498,#499),.UNSPECIFIED.,.F.,.F.,
  (2,2),(0.,1.),.PIECEWISE_BEZIER_KNOTS.);
#498 = CARTESIAN_POINT('',(0.,1.));
#499 = CARTESIAN_POINT('',(1.,1.));
#500 = ( GEOMETRIC_REPRESENTATION_CONTEXT(2) 
PARAMETRIC_REPRESENTATION_CONTEXT() REPRESENTATION_CONTEXT('2D SPACE',''
  ) );
#501 = PCURVE('',#502,#507);
#502 = PLANE('',#503);
#503 = AXIS2_PLACEMENT_3D('',#504,#505,#506);
#504 = CARTESIAN_POINT('',(2.551784974519E+03,5.E+03,446.86378975335));
#505 = DIRECTION('',(-5.29595032516E-14,-1.,-1.010527520458E-12));
#506 = DIRECTION('',(0.998629534755,-1.645584815845E-30,
    -5.233595624294E-02));
#507 = DEFINITIONAL_REPRESENTATION('',(#508),#524);
#508 = B_SPLINE_CURVE_WITH_KNOTS('',8,(#509,#510,#511,#512,#513,#514,
    #515,#516,#517,#518,#519,#520,#521,#522,#523),.UNSPECIFIED.,.F.,.F.,
  (9,6,9),(0.,0.508827561859,1.),.UNSPECIFIED.);
#509 = CARTESIAN_POINT('',(0.,0.));
#510 = CARTESIAN_POINT('',(7.859406367697,49.710682992894));
#511 = CARTESIAN_POINT('',(124.65984334852,23.516712529339));
#512 = CARTESIAN_POINT('',(64.748980796602,78.939482222066));
#513 = CARTESIAN_POINT('',(222.70427389956,37.410311056731));
#514 = CARTESIAN_POINT('',(194.13447042792,68.669086868049));
#515 = CARTESIAN_POINT('',(272.18256883828,55.875297333546));
#516 = CARTESIAN_POINT('',(353.84294918556,55.036194697112));
#517 = CARTESIAN_POINT('',(454.6197033703,42.984234651179));
#518 = CARTESIAN_POINT('',(488.80324449191,41.354030809274));
#519 = CARTESIAN_POINT('',(549.32916425003,29.969993515124));
#520 = CARTESIAN_POINT('',(580.7355223822,27.584065993629));
#521 = CARTESIAN_POINT('',(632.92367418713,17.388159599342));
#522 = CARTESIAN_POINT('',(675.21051164927,9.615878232387));
#523 = CARTESIAN_POINT('',(720.,0.));
#524 = ( GEOMETRIC_REPRESENTATION_CONTEXT(2) 
PARAMETRIC_REPRESENTATION_CONTEXT() REPRESENTATION_CONTEXT('2D SPACE',''
  ) );
#525 = ORIENTED_EDGE('',*,*,#526,.F.);
#526 = EDGE_CURVE('',#205,#476,#527,.T.);
#527 = SURFACE_CURVE('',#528,(#531,#537),.PCURVE_S1.);
#528 = B_SPLINE_CURVE_WITH_KNOTS('',1,(#529,#530),.UNSPECIFIED.,.F.,.F.,
  (2,2),(0.,1.),.PIECEWISE_BEZIER_KNOTS.);
#529 = CARTESIAN_POINT('',(0.,0.,0.));
#530 = CARTESIAN_POINT('',(2.551784974519E+03,5.E+03,446.86378975335));
#531 = PCURVE('',#234,#532);
#532 = DEFINITIONAL_REPRESENTATION('',(#533),#536);
#533 = B_SPLINE_CURVE_WITH_KNOTS('',1,(#534,#535),.UNSPECIFIED.,.F.,.F.,
  (2,2),(0.,1.),.PIECEWISE_BEZIER_KNOTS.);
#534 = CARTESIAN_POINT('',(0.,0.));
#535 = CARTESIAN_POINT('',(0.,1.));
#536 = ( GEOMETRIC_REPRESENTATION_CONTEXT(2) 
PARAMETRIC_REPRESENTATION_CONTEXT() REPRESENTATION_CONTEXT('2D SPACE',''
  ) );
#537 = PCURVE('',#389,#538);
#538 = DEFINITIONAL_REPRESENTATION('',(#539),#542);
#539 = B_SPLINE_CURVE_WITH_KNOTS('',1,(#540,#541),.UNSPECIFIED.,.F.,.F.,
  (2,2),(0.,1.),.PIECEWISE_BEZIER_KNOTS.);
#540 = CARTESIAN_POINT('',(1.,0.));
#541 = CARTESIAN_POINT('',(1.,1.));
#542 = ( GEOMETRIC_REPRESENTATION_CONTEXT(2) 
PARAMETRIC_REPRESENTATION_CONTEXT() REPRESENTATION_CONTEXT('2D SPACE',''
  ) );
#543 = ADVANCED_FACE('',(#544),#389,.T.);
#544 = FACE_BOUND('',#545,.T.);
#545 = EDGE_LOOP('',(#546,#547,#548,#592));
#546 = ORIENTED_EDGE('',*,*,#361,.F.);
#547 = ORIENTED_EDGE('',*,*,#526,.T.);
#548 = ORIENTED_EDGE('',*,*,#549,.T.);
#549 = EDGE_CURVE('',#476,#456,#550,.T.);
#550 = SURFACE_CURVE('',#551,(#567,#573),.PCURVE_S1.);
#551 = B_SPLINE_CURVE_WITH_KNOTS('',8,(#552,#553,#554,#555,#556,#557,
    #558,#559,#560,#561,#562,#563,#564,#565,#566),.UNSPECIFIED.,.F.,.F.,
  (9,6,9),(0.,0.504983755569,1.),.UNSPECIFIED.);
#552 = CARTESIAN_POINT('',(2.551784974519E+03,5.E+03,446.86378975335));
#553 = CARTESIAN_POINT('',(2.566173149528E+03,4.999999999999E+03,
    399.85491596915));
#554 = CARTESIAN_POINT('',(2.674682681456E+03,5.000000000003E+03,
    439.41901153831));
#555 = CARTESIAN_POINT('',(2.625147920326E+03,4.999999999994E+03,
    376.44842101725));
#556 = CARTESIAN_POINT('',(2.770943333718E+03,5.000000000007E+03,
    430.65312119363));
#557 = CARTESIAN_POINT('',(2.748714239314E+03,4.999999999995E+03,
    394.10082816008));
#558 = CARTESIAN_POINT('',(2.82264661176E+03,5.000000000001E+03,
    406.87263516632));
#559 = CARTESIAN_POINT('',(2.904137646746E+03,4.999999999999E+03,
    401.41793278407));
#560 = CARTESIAN_POINT('',(3.003241376468E+03,5.000000000001E+03,
    406.05639456977));
#561 = CARTESIAN_POINT('',(3.038379206803E+03,4.999999999999E+03,
    401.7307207998));
#562 = CARTESIAN_POINT('',(3.0976447022E+03,5.000000000001E+03,
    409.2795617349));
#563 = CARTESIAN_POINT('',(3.130472959126E+03,4.999999999999E+03,
    403.97448382022));
#564 = CARTESIAN_POINT('',(3.18234669644E+03,5.E+03,408.0362293564));
#565 = CARTESIAN_POINT('',(3.225344635484E+03,5.E+03,407.89565215275));
#566 = CARTESIAN_POINT('',(3.270798239542E+03,5.E+03,409.18190125843));
#567 = PCURVE('',#389,#568);
#568 = DEFINITIONAL_REPRESENTATION('',(#569),#572);
#569 = B_SPLINE_CURVE_WITH_KNOTS('',1,(#570,#571),.UNSPECIFIED.,.F.,.F.,
  (2,2),(0.,1.),.PIECEWISE_BEZIER_KNOTS.);
#570 = CARTESIAN_POINT('',(1.,1.));
#571 = CARTESIAN_POINT('',(0.,1.));
#572 = ( GEOMETRIC_REPRESENTATION_CONTEXT(2) 
PARAMETRIC_REPRESENTATION_CONTEXT() REPRESENTATION_CONTEXT('2D SPACE',''
  ) );
#573 = PCURVE('',#502,#574);
#574 = DEFINITIONAL_REPRESENTATION('',(#575),#591);
#575 = B_SPLINE_CURVE_WITH_KNOTS('',8,(#576,#577,#578,#579,#580,#581,
    #582,#583,#584,#585,#586,#587,#588,#589,#590),.UNSPECIFIED.,.F.,.F.,
  (9,6,9),(0.,0.504983755569,1.),.UNSPECIFIED.);
#576 = CARTESIAN_POINT('',(0.,0.));
#577 = CARTESIAN_POINT('',(16.828710876727,-46.19143085875));
#578 = CARTESIAN_POINT('',(123.1189094879,-1.002606392616));
#579 = CARTESIAN_POINT('',(76.947660095838,-66.47934699892));
#580 = CARTESIAN_POINT('',(219.70641112468,-4.718590104545));
#581 = CARTESIAN_POINT('',(199.4207801304,-42.38417040292));
#582 = CARTESIAN_POINT('',(272.58340609757,-25.76054530499));
#583 = CARTESIAN_POINT('',(354.24823751734,-26.94286096599));
#584 = CARTESIAN_POINT('',(452.97339068927,-17.1240675687));
#585 = CARTESIAN_POINT('',(488.28945412186,-19.60484120224));
#586 = CARTESIAN_POINT('',(547.07865240828,-8.964629317478));
#587 = CARTESIAN_POINT('',(580.13956567434,-12.54433858925));
#588 = CARTESIAN_POINT('',(631.72963649731,-5.773297887956));
#589 = CARTESIAN_POINT('',(674.67600560304,-3.663344179069));
#590 = CARTESIAN_POINT('',(720.,0.));
#591 = ( GEOMETRIC_REPRESENTATION_CONTEXT(2) 
PARAMETRIC_REPRESENTATION_CONTEXT() REPRESENTATION_CONTEXT('2D SPACE',''
  ) );
#592 = ORIENTED_EDGE('',*,*,#455,.F.);
#593 = ADVANCED_FACE('',(#594),#105,.T.);
#594 = FACE_BOUND('',#595,.F.);
#595 = EDGE_LOOP('',(#596,#597));
#596 = ORIENTED_EDGE('',*,*,#21,.T.);
#597 = ORIENTED_EDGE('',*,*,#316,.F.);
#598 = ADVANCED_FACE('',(#599),#502,.F.);
#599 = FACE_BOUND('',#600,.T.);
#600 = EDGE_LOOP('',(#601,#602));
#601 = ORIENTED_EDGE('',*,*,#475,.T.);
#602 = ORIENTED_EDGE('',*,*,#549,.F.);
#603 = ( GEOMETRIC_REPRESENTATION_CONTEXT(3) 
GLOBAL_UNCERTAINTY_ASSIGNED_CONTEXT((#607)) GLOBAL_UNIT_ASSIGNED_CONTEXT
((#604,#605,#606)) REPRESENTATION_CONTEXT('Context #1',
  '3D Context with UNIT and UNCERTAINTY') );
#604 = ( LENGTH_UNIT() NAMED_UNIT(*) SI_UNIT(.MILLI.,.METRE.) );
#605 = ( NAMED_UNIT(*) PLANE_ANGLE_UNIT() SI_UNIT($,.RADIAN.) );
#606 = ( NAMED_UNIT(*) SI_UNIT($,.STERADIAN.) SOLID_ANGLE_UNIT() );
#607 = UNCERTAINTY_MEASURE_WITH_UNIT(LENGTH_MEASURE(1.E-04),#604,
  'distance_accuracy_value','confusion accuracy');
#608 = PRODUCT_RELATED_PRODUCT_CATEGORY('part',$,(#7));
ENDSEC;
END-ISO-10303-21;
