ISO-10303-21;
HEADER;
FILE_DESCRIPTION(('Open CASCADE Model'),'2;1');
FILE_NAME('Open CASCADE Shape Model','2026-08-21T19:41:15',('Author'),(
    'Open CASCADE'),'Open CASCADE STEP processor 7.9','Open CASCADE 7.9'
  ,'Unknown');
FILE_SCHEMA(('AUTOMOTIVE_DESIGN { 1 0 10303 214 1 1 1 1 }'));
ENDSEC;
DATA;
#1 = APPLICATION_PROTOCOL_DEFINITION('international standard',
  'automotive_design',2000,#2);
#2 = APPLICATION_CONTEXT(
  'core data for automotive mechanical design processes');
#3 = SHAPE_DEFINITION_REPRESENTATION(#4,#10);
#4 = PRODUCT_DEFINITION_SHAPE('','',#5);
#5 = PRODUCT_DEFINITION('design','',#6,#9);
#6 = PRODUCT_DEFINITION_FORMATION('','',#7);
#7 = PRODUCT('Open CASCADE STEP translator 7.9 2',
  'Open CASCADE STEP translator 7.9 2','',(#8));
#8 = PRODUCT_CONTEXT('',#2,'mechanical');
#9 = PRODUCT_DEFINITION_CONTEXT('part definition',#2,'design');
#10 = ADVANCED_BREP_SHAPE_REPRESENTATION('',(#11,#15),#315);
#11 = AXIS2_PLACEMENT_3D('',#12,#13,#14);
#12 = CARTESIAN_POINT('',(0.,0.,0.));
#13 = DIRECTION('',(0.,0.,1.));
#14 = DIRECTION('',(1.,0.,-0.));
#15 = MANIFOLD_SOLID_BREP('',#16);
#16 = CLOSED_SHELL('',(#17,#164,#231,#308));
#17 = ADVANCED_FACE('',(#18),#31,.T.);
#18 = FACE_BOUND('',#19,.T.);
#19 = EDGE_LOOP('',(#20,#86,#137,#163));
#20 = ORIENTED_EDGE('',*,*,#21,.T.);
#21 = EDGE_CURVE('',#22,#22,#24,.T.);
#22 = VERTEX_POINT('',#23);
#23 = CARTESIAN_POINT('',(0.,0.,850.));
#24 = SURFACE_CURVE('',#25,(#30,#74),.PCURVE_S1.);
#25 = CIRCLE('',#26,850.);
#26 = AXIS2_PLACEMENT_3D('',#27,#28,#29);
#27 = CARTESIAN_POINT('',(0.,0.,0.));
#28 = DIRECTION('',(1.,0.,-0.));
#29 = DIRECTION('',(0.,0.,1.));
#30 = PCURVE('',#31,#69);
#31 = SURFACE_OF_REVOLUTION('',#32,#66);
#32 = B_SPLINE_CURVE_WITH_KNOTS('',8,(#33,#34,#35,#36,#37,#38,#39,#40,
    #41,#42,#43,#44,#45,#46,#47,#48,#49,#50,#51,#52,#53,#54,#55,#56,#57,
    #58,#59,#60,#61,#62,#63,#64,#65),.UNSPECIFIED.,.F.,.F.,(9,6,6,6,6,9)
  ,(0.,0.209984527061,0.399254364833,0.589189233389,0.783535056669,1.),
  .UNSPECIFIED.);
#33 = CARTESIAN_POINT('',(0.,0.,850.));
#34 = CARTESIAN_POINT('',(1.862424852503,0.,941.36928994424));
#35 = CARTESIAN_POINT('',(151.91182503922,0.,965.05878837729));
#36 = CARTESIAN_POINT('',(153.24612606925,0.,993.19239011628));
#37 = CARTESIAN_POINT('',(297.1816143679,0.,1.020983891158E+03));
#38 = CARTESIAN_POINT('',(342.23510274594,0.,1.034753880678E+03));
#39 = CARTESIAN_POINT('',(437.10227619019,0.,1.053004720782E+03));
#40 = CARTESIAN_POINT('',(589.83514959651,0.,1.077476996065E+03));
#41 = CARTESIAN_POINT('',(750.44731082362,0.,1.094855826665E+03));
#42 = CARTESIAN_POINT('',(822.08087649443,0.,1.100253650897E+03));
#43 = CARTESIAN_POINT('',(901.49042565244,0.,1.105723318345E+03));
#44 = CARTESIAN_POINT('',(973.31505447556,0.,1.107722848275E+03));
#45 = CARTESIAN_POINT('',(1.049928367988E+03,0.,1.109218796967E+03));
#46 = CARTESIAN_POINT('',(1.200099011067E+03,0.,1.108179019195E+03));
#47 = CARTESIAN_POINT('',(1.350897162721E+03,0.,1.100968691945E+03));
#48 = CARTESIAN_POINT('',(1.425975180707E+03,0.,1.095662400976E+03));
#49 = CARTESIAN_POINT('',(1.501046174589E+03,0.,1.088917189627E+03));
#50 = CARTESIAN_POINT('',(1.576547725173E+03,0.,1.080649169184E+03));
#51 = CARTESIAN_POINT('',(1.650805351361E+03,0.,1.070770240344E+03));
#52 = CARTESIAN_POINT('',(1.802322898737E+03,0.,1.048069015974E+03));
#53 = CARTESIAN_POINT('',(1.951508913411E+03,0.,1.019310761912E+03));
#54 = CARTESIAN_POINT('',(2.029195122999E+03,0.,1.003720877797E+03));
#55 = CARTESIAN_POINT('',(2.099556224814E+03,0.,985.54144883412));
#56 = CARTESIAN_POINT('',(2.180702593351E+03,0.,967.83452125779));
#57 = CARTESIAN_POINT('',(2.250511132521E+03,0.,946.9058086042));
#58 = CARTESIAN_POINT('',(2.411309825115E+03,0.,902.19128298682));
#59 = CARTESIAN_POINT('',(2.560655578735E+03,0.,849.5021395522));
#60 = CARTESIAN_POINT('',(2.65911792231E+03,0.,823.76762919971));
#61 = CARTESIAN_POINT('',(2.691893562362E+03,0.,782.67320046118));
#62 = CARTESIAN_POINT('',(2.850132781314E+03,0.,767.96253653269));
#63 = CARTESIAN_POINT('',(2.837668958724E+03,0.,705.44342211836));
#64 = CARTESIAN_POINT('',(2.989932198053E+03,0.,692.06059571124));
#65 = CARTESIAN_POINT('',(3.E+03,0.,600.));
#66 = AXIS1_PLACEMENT('',#67,#68);
#67 = CARTESIAN_POINT('',(0.,0.,0.));
#68 = DIRECTION('',(1.,0.,0.));
#69 = DEFINITIONAL_REPRESENTATION('',(#70),#73);
#70 = B_SPLINE_CURVE_WITH_KNOTS('',1,(#71,#72),.UNSPECIFIED.,.F.,.F.,(2,
    2),(0.,6.28318530718),.PIECEWISE_BEZIER_KNOTS.);
#71 = CARTESIAN_POINT('',(0.,0.));
#72 = CARTESIAN_POINT('',(6.28318530718,0.));
#73 = ( GEOMETRIC_REPRESENTATION_CONTEXT(2) 
PARAMETRIC_REPRESENTATION_CONTEXT() REPRESENTATION_CONTEXT('2D SPACE',''
  ) );
#74 = PCURVE('',#75,#80);
#75 = PLANE('',#76);
#76 = AXIS2_PLACEMENT_3D('',#77,#78,#79);
#77 = CARTESIAN_POINT('',(0.,0.,0.));
#78 = DIRECTION('',(1.,0.,0.));
#79 = DIRECTION('',(0.,0.,1.));
#80 = DEFINITIONAL_REPRESENTATION('',(#81),#85);
#81 = CIRCLE('',#82,850.);
#82 = AXIS2_PLACEMENT_2D('',#83,#84);
#83 = CARTESIAN_POINT('',(0.,0.));
#84 = DIRECTION('',(1.,-0.));
#85 = ( GEOMETRIC_REPRESENTATION_CONTEXT(2) 
PARAMETRIC_REPRESENTATION_CONTEXT() REPRESENTATION_CONTEXT('2D SPACE',''
  ) );
#86 = ORIENTED_EDGE('',*,*,#87,.T.);
#87 = EDGE_CURVE('',#22,#88,#90,.T.);
#88 = VERTEX_POINT('',#89);
#89 = CARTESIAN_POINT('',(3.E+03,0.,600.));
#90 = SEAM_CURVE('',#91,(#125,#131),.PCURVE_S1.);
#91 = B_SPLINE_CURVE_WITH_KNOTS('',8,(#92,#93,#94,#95,#96,#97,#98,#99,
    #100,#101,#102,#103,#104,#105,#106,#107,#108,#109,#110,#111,#112,
    #113,#114,#115,#116,#117,#118,#119,#120,#121,#122,#123,#124),
  .UNSPECIFIED.,.F.,.F.,(9,6,6,6,6,9),(0.,0.209984527061,0.399254364833,
    0.589189233389,0.783535056669,1.),.UNSPECIFIED.);
#92 = CARTESIAN_POINT('',(0.,0.,850.));
#93 = CARTESIAN_POINT('',(1.862424852503,0.,941.36928994424));
#94 = CARTESIAN_POINT('',(151.91182503922,0.,965.05878837729));
#95 = CARTESIAN_POINT('',(153.24612606925,0.,993.19239011628));
#96 = CARTESIAN_POINT('',(297.1816143679,0.,1.020983891158E+03));
#97 = CARTESIAN_POINT('',(342.23510274594,0.,1.034753880678E+03));
#98 = CARTESIAN_POINT('',(437.10227619019,0.,1.053004720782E+03));
#99 = CARTESIAN_POINT('',(589.83514959651,0.,1.077476996065E+03));
#100 = CARTESIAN_POINT('',(750.44731082362,0.,1.094855826665E+03));
#101 = CARTESIAN_POINT('',(822.08087649443,0.,1.100253650897E+03));
#102 = CARTESIAN_POINT('',(901.49042565244,0.,1.105723318345E+03));
#103 = CARTESIAN_POINT('',(973.31505447556,0.,1.107722848275E+03));
#104 = CARTESIAN_POINT('',(1.049928367988E+03,0.,1.109218796967E+03));
#105 = CARTESIAN_POINT('',(1.200099011067E+03,0.,1.108179019195E+03));
#106 = CARTESIAN_POINT('',(1.350897162721E+03,0.,1.100968691945E+03));
#107 = CARTESIAN_POINT('',(1.425975180707E+03,0.,1.095662400976E+03));
#108 = CARTESIAN_POINT('',(1.501046174589E+03,0.,1.088917189627E+03));
#109 = CARTESIAN_POINT('',(1.576547725173E+03,0.,1.080649169184E+03));
#110 = CARTESIAN_POINT('',(1.650805351361E+03,0.,1.070770240344E+03));
#111 = CARTESIAN_POINT('',(1.802322898737E+03,0.,1.048069015974E+03));
#112 = CARTESIAN_POINT('',(1.951508913411E+03,0.,1.019310761912E+03));
#113 = CARTESIAN_POINT('',(2.029195122999E+03,0.,1.003720877797E+03));
#114 = CARTESIAN_POINT('',(2.099556224814E+03,0.,985.54144883412));
#115 = CARTESIAN_POINT('',(2.180702593351E+03,0.,967.83452125779));
#116 = CARTESIAN_POINT('',(2.250511132521E+03,0.,946.9058086042));
#117 = CARTESIAN_POINT('',(2.411309825115E+03,0.,902.19128298682));
#118 = CARTESIAN_POINT('',(2.560655578735E+03,0.,849.5021395522));
#119 = CARTESIAN_POINT('',(2.65911792231E+03,0.,823.76762919971));
#120 = CARTESIAN_POINT('',(2.691893562362E+03,0.,782.67320046118));
#121 = CARTESIAN_POINT('',(2.850132781314E+03,0.,767.96253653269));
#122 = CARTESIAN_POINT('',(2.837668958724E+03,0.,705.44342211836));
#123 = CARTESIAN_POINT('',(2.989932198053E+03,0.,692.06059571124));
#124 = CARTESIAN_POINT('',(3.E+03,0.,600.));
#125 = PCURVE('',#31,#126);
#126 = DEFINITIONAL_REPRESENTATION('',(#127),#130);
#127 = B_SPLINE_CURVE_WITH_KNOTS('',1,(#128,#129),.UNSPECIFIED.,.F.,.F.,
  (2,2),(0.,1.),.PIECEWISE_BEZIER_KNOTS.);
#128 = CARTESIAN_POINT('',(0.,0.));
#129 = CARTESIAN_POINT('',(0.,1.));
#130 = ( GEOMETRIC_REPRESENTATION_CONTEXT(2) 
PARAMETRIC_REPRESENTATION_CONTEXT() REPRESENTATION_CONTEXT('2D SPACE',''
  ) );
#131 = PCURVE('',#31,#132);
#132 = DEFINITIONAL_REPRESENTATION('',(#133),#136);
#133 = B_SPLINE_CURVE_WITH_KNOTS('',1,(#134,#135),.UNSPECIFIED.,.F.,.F.,
  (2,2),(0.,1.),.PIECEWISE_BEZIER_KNOTS.);
#134 = CARTESIAN_POINT('',(6.28318530718,0.));
#135 = CARTESIAN_POINT('',(6.28318530718,1.));
#136 = ( GEOMETRIC_REPRESENTATION_CONTEXT(2) 
PARAMETRIC_REPRESENTATION_CONTEXT() REPRESENTATION_CONTEXT('2D SPACE',''
  ) );
#137 = ORIENTED_EDGE('',*,*,#138,.F.);
#138 = EDGE_CURVE('',#88,#88,#139,.T.);
#139 = SURFACE_CURVE('',#140,(#145,#151),.PCURVE_S1.);
#140 = CIRCLE('',#141,600.);
#141 = AXIS2_PLACEMENT_3D('',#142,#143,#144);
#142 = CARTESIAN_POINT('',(3.E+03,0.,0.));
#143 = DIRECTION('',(1.,0.,-0.));
#144 = DIRECTION('',(0.,0.,1.));
#145 = PCURVE('',#31,#146);
#146 = DEFINITIONAL_REPRESENTATION('',(#147),#150);
#147 = B_SPLINE_CURVE_WITH_KNOTS('',1,(#148,#149),.UNSPECIFIED.,.F.,.F.,
  (2,2),(0.,6.28318530718),.PIECEWISE_BEZIER_KNOTS.);
#148 = CARTESIAN_POINT('',(0.,1.));
#149 = CARTESIAN_POINT('',(6.28318530718,1.));
#150 = ( GEOMETRIC_REPRESENTATION_CONTEXT(2) 
PARAMETRIC_REPRESENTATION_CONTEXT() REPRESENTATION_CONTEXT('2D SPACE',''
  ) );
#151 = PCURVE('',#152,#157);
#152 = PLANE('',#153);
#153 = AXIS2_PLACEMENT_3D('',#154,#155,#156);
#154 = CARTESIAN_POINT('',(3.E+03,0.,0.));
#155 = DIRECTION('',(1.,0.,0.));
#156 = DIRECTION('',(0.,0.,1.));
#157 = DEFINITIONAL_REPRESENTATION('',(#158),#162);
#158 = CIRCLE('',#159,600.);
#159 = AXIS2_PLACEMENT_2D('',#160,#161);
#160 = CARTESIAN_POINT('',(0.,0.));
#161 = DIRECTION('',(1.,0.));
#162 = ( GEOMETRIC_REPRESENTATION_CONTEXT(2) 
PARAMETRIC_REPRESENTATION_CONTEXT() REPRESENTATION_CONTEXT('2D SPACE',''
  ) );
#163 = ORIENTED_EDGE('',*,*,#87,.F.);
#164 = ADVANCED_FACE('',(#165,#168),#152,.T.);
#165 = FACE_BOUND('',#166,.T.);
#166 = EDGE_LOOP('',(#167));
#167 = ORIENTED_EDGE('',*,*,#138,.T.);
#168 = FACE_BOUND('',#169,.T.);
#169 = EDGE_LOOP('',(#170));
#170 = ORIENTED_EDGE('',*,*,#171,.F.);
#171 = EDGE_CURVE('',#172,#172,#174,.T.);
#172 = VERTEX_POINT('',#173);
#173 = CARTESIAN_POINT('',(3.E+03,0.,500.));
#174 = SURFACE_CURVE('',#175,(#180,#187),.PCURVE_S1.);
#175 = CIRCLE('',#176,500.);
#176 = AXIS2_PLACEMENT_3D('',#177,#178,#179);
#177 = CARTESIAN_POINT('',(3.E+03,0.,0.));
#178 = DIRECTION('',(1.,0.,-0.));
#179 = DIRECTION('',(0.,0.,1.));
#180 = PCURVE('',#152,#181);
#181 = DEFINITIONAL_REPRESENTATION('',(#182),#186);
#182 = CIRCLE('',#183,500.);
#183 = AXIS2_PLACEMENT_2D('',#184,#185);
#184 = CARTESIAN_POINT('',(0.,0.));
#185 = DIRECTION('',(1.,0.));
#186 = ( GEOMETRIC_REPRESENTATION_CONTEXT(2) 
PARAMETRIC_REPRESENTATION_CONTEXT() REPRESENTATION_CONTEXT('2D SPACE',''
  ) );
#187 = PCURVE('',#188,#226);
#188 = SURFACE_OF_REVOLUTION('',#189,#223);
#189 = B_SPLINE_CURVE_WITH_KNOTS('',8,(#190,#191,#192,#193,#194,#195,
    #196,#197,#198,#199,#200,#201,#202,#203,#204,#205,#206,#207,#208,
    #209,#210,#211,#212,#213,#214,#215,#216,#217,#218,#219,#220,#221,
    #222),.UNSPECIFIED.,.F.,.F.,(9,6,6,6,6,9),(0.,0.213059975976,
    0.408154264593,0.600520535888,0.791984788035,1.),.UNSPECIFIED.);
#190 = CARTESIAN_POINT('',(3.E+03,0.,500.));
#191 = CARTESIAN_POINT('',(2.986465288829E+03,0.,589.16123963576));
#192 = CARTESIAN_POINT('',(2.831797164021E+03,0.,589.43700063008));
#193 = CARTESIAN_POINT('',(2.850126299347E+03,0.,656.25828615379));
#194 = CARTESIAN_POINT('',(2.685521366809E+03,0.,655.42610537668));
#195 = CARTESIAN_POINT('',(2.657940822861E+03,0.,696.59815063011));
#196 = CARTESIAN_POINT('',(2.558347154704E+03,0.,714.29998413647));
#197 = CARTESIAN_POINT('',(2.409889678852E+03,0.,757.56291209326));
#198 = CARTESIAN_POINT('',(2.249481074123E+03,0.,792.59988641229));
#199 = CARTESIAN_POINT('',(2.180104219865E+03,0.,810.31789787858));
#200 = CARTESIAN_POINT('',(2.098095477462E+03,0.,823.60323548345));
#201 = CARTESIAN_POINT('',(2.028427042109E+03,0.,839.31093965027));
#202 = CARTESIAN_POINT('',(1.950695435067E+03,0.,851.8326989323));
#203 = CARTESIAN_POINT('',(1.801589370554E+03,0.,876.27977551706));
#204 = CARTESIAN_POINT('',(1.650415812718E+03,0.,896.29059707141));
#205 = CARTESIAN_POINT('',(1.5761463289E+03,0.,905.56139466946));
#206 = CARTESIAN_POINT('',(1.500687987855E+03,0.,913.3181763584));
#207 = CARTESIAN_POINT('',(1.425591743592E+03,0.,920.52752596446));
#208 = CARTESIAN_POINT('',(1.350727590636E+03,0.,926.43363842859));
#209 = CARTESIAN_POINT('',(1.200134204889E+03,0.,936.20503507544));
#210 = CARTESIAN_POINT('',(1.050373501298E+03,0.,941.56692136841));
#211 = CARTESIAN_POINT('',(973.49941711111,0.,942.99691270197));
#212 = CARTESIAN_POINT('',(902.69595790538,0.,943.59252328071));
#213 = CARTESIAN_POINT('',(822.09548033063,0.,942.33702528224));
#214 = CARTESIAN_POINT('',(751.30077123416,0.,940.36349705574));
#215 = CARTESIAN_POINT('',(591.22305573349,0.,932.43346180982));
#216 = CARTESIAN_POINT('',(440.15006847728,0.,917.67549526651));
#217 = CARTESIAN_POINT('',(343.25963665422,0.,907.10299603071));
#218 = CARTESIAN_POINT('',(306.78496215246,0.,894.09439527019));
#219 = CARTESIAN_POINT('',(151.19138863511,0.,881.44366118361));
#220 = CARTESIAN_POINT('',(161.82060561578,0.,848.81732007338));
#221 = CARTESIAN_POINT('',(4.237593548616,0.,840.20618220392));
#222 = CARTESIAN_POINT('',(0.,0.,750.));
#223 = AXIS1_PLACEMENT('',#224,#225);
#224 = CARTESIAN_POINT('',(0.,0.,0.));
#225 = DIRECTION('',(1.,0.,0.));
#226 = DEFINITIONAL_REPRESENTATION('',(#227),#230);
#227 = B_SPLINE_CURVE_WITH_KNOTS('',1,(#228,#229),.UNSPECIFIED.,.F.,.F.,
  (2,2),(0.,6.28318530718),.PIECEWISE_BEZIER_KNOTS.);
#228 = CARTESIAN_POINT('',(0.,0.));
#229 = CARTESIAN_POINT('',(6.28318530718,0.));
#230 = ( GEOMETRIC_REPRESENTATION_CONTEXT(2) 
PARAMETRIC_REPRESENTATION_CONTEXT() REPRESENTATION_CONTEXT('2D SPACE',''
  ) );
#231 = ADVANCED_FACE('',(#232),#188,.T.);
#232 = FACE_BOUND('',#233,.T.);
#233 = EDGE_LOOP('',(#234,#235,#286,#307));
#234 = ORIENTED_EDGE('',*,*,#171,.T.);
#235 = ORIENTED_EDGE('',*,*,#236,.T.);
#236 = EDGE_CURVE('',#172,#237,#239,.T.);
#237 = VERTEX_POINT('',#238);
#238 = CARTESIAN_POINT('',(0.,0.,750.));
#239 = SEAM_CURVE('',#240,(#274,#280),.PCURVE_S1.);
#240 = B_SPLINE_CURVE_WITH_KNOTS('',8,(#241,#242,#243,#244,#245,#246,
    #247,#248,#249,#250,#251,#252,#253,#254,#255,#256,#257,#258,#259,
    #260,#261,#262,#263,#264,#265,#266,#267,#268,#269,#270,#271,#272,
    #273),.UNSPECIFIED.,.F.,.F.,(9,6,6,6,6,9),(0.,0.213059975976,
    0.408154264593,0.600520535888,0.791984788035,1.),.UNSPECIFIED.);
#241 = CARTESIAN_POINT('',(3.E+03,0.,500.));
#242 = CARTESIAN_POINT('',(2.986465288829E+03,0.,589.16123963576));
#243 = CARTESIAN_POINT('',(2.831797164021E+03,0.,589.43700063008));
#244 = CARTESIAN_POINT('',(2.850126299347E+03,0.,656.25828615379));
#245 = CARTESIAN_POINT('',(2.685521366809E+03,0.,655.42610537668));
#246 = CARTESIAN_POINT('',(2.657940822861E+03,0.,696.59815063011));
#247 = CARTESIAN_POINT('',(2.558347154704E+03,0.,714.29998413647));
#248 = CARTESIAN_POINT('',(2.409889678852E+03,0.,757.56291209326));
#249 = CARTESIAN_POINT('',(2.249481074123E+03,0.,792.59988641229));
#250 = CARTESIAN_POINT('',(2.180104219865E+03,0.,810.31789787858));
#251 = CARTESIAN_POINT('',(2.098095477462E+03,0.,823.60323548345));
#252 = CARTESIAN_POINT('',(2.028427042109E+03,0.,839.31093965027));
#253 = CARTESIAN_POINT('',(1.950695435067E+03,0.,851.8326989323));
#254 = CARTESIAN_POINT('',(1.801589370554E+03,0.,876.27977551706));
#255 = CARTESIAN_POINT('',(1.650415812718E+03,0.,896.29059707141));
#256 = CARTESIAN_POINT('',(1.5761463289E+03,0.,905.56139466946));
#257 = CARTESIAN_POINT('',(1.500687987855E+03,0.,913.3181763584));
#258 = CARTESIAN_POINT('',(1.425591743592E+03,0.,920.52752596446));
#259 = CARTESIAN_POINT('',(1.350727590636E+03,0.,926.43363842859));
#260 = CARTESIAN_POINT('',(1.200134204889E+03,0.,936.20503507544));
#261 = CARTESIAN_POINT('',(1.050373501298E+03,0.,941.56692136841));
#262 = CARTESIAN_POINT('',(973.49941711111,0.,942.99691270197));
#263 = CARTESIAN_POINT('',(902.69595790538,0.,943.59252328071));
#264 = CARTESIAN_POINT('',(822.09548033063,0.,942.33702528224));
#265 = CARTESIAN_POINT('',(751.30077123416,0.,940.36349705574));
#266 = CARTESIAN_POINT('',(591.22305573349,0.,932.43346180982));
#267 = CARTESIAN_POINT('',(440.15006847728,0.,917.67549526651));
#268 = CARTESIAN_POINT('',(343.25963665422,0.,907.10299603071));
#269 = CARTESIAN_POINT('',(306.78496215246,0.,894.09439527019));
#270 = CARTESIAN_POINT('',(151.19138863511,0.,881.44366118361));
#271 = CARTESIAN_POINT('',(161.82060561578,0.,848.81732007338));
#272 = CARTESIAN_POINT('',(4.237593548616,0.,840.20618220392));
#273 = CARTESIAN_POINT('',(0.,0.,750.));
#274 = PCURVE('',#188,#275);
#275 = DEFINITIONAL_REPRESENTATION('',(#276),#279);
#276 = B_SPLINE_CURVE_WITH_KNOTS('',1,(#277,#278),.UNSPECIFIED.,.F.,.F.,
  (2,2),(0.,1.),.PIECEWISE_BEZIER_KNOTS.);
#277 = CARTESIAN_POINT('',(0.,0.));
#278 = CARTESIAN_POINT('',(0.,1.));
#279 = ( GEOMETRIC_REPRESENTATION_CONTEXT(2) 
PARAMETRIC_REPRESENTATION_CONTEXT() REPRESENTATION_CONTEXT('2D SPACE',''
  ) );
#280 = PCURVE('',#188,#281);
#281 = DEFINITIONAL_REPRESENTATION('',(#282),#285);
#282 = B_SPLINE_CURVE_WITH_KNOTS('',1,(#283,#284),.UNSPECIFIED.,.F.,.F.,
  (2,2),(0.,1.),.PIECEWISE_BEZIER_KNOTS.);
#283 = CARTESIAN_POINT('',(6.28318530718,0.));
#284 = CARTESIAN_POINT('',(6.28318530718,1.));
#285 = ( GEOMETRIC_REPRESENTATION_CONTEXT(2) 
PARAMETRIC_REPRESENTATION_CONTEXT() REPRESENTATION_CONTEXT('2D SPACE',''
  ) );
#286 = ORIENTED_EDGE('',*,*,#287,.F.);
#287 = EDGE_CURVE('',#237,#237,#288,.T.);
#288 = SURFACE_CURVE('',#289,(#294,#300),.PCURVE_S1.);
#289 = CIRCLE('',#290,750.);
#290 = AXIS2_PLACEMENT_3D('',#291,#292,#293);
#291 = CARTESIAN_POINT('',(0.,0.,0.));
#292 = DIRECTION('',(1.,0.,-0.));
#293 = DIRECTION('',(0.,0.,1.));
#294 = PCURVE('',#188,#295);
#295 = DEFINITIONAL_REPRESENTATION('',(#296),#299);
#296 = B_SPLINE_CURVE_WITH_KNOTS('',1,(#297,#298),.UNSPECIFIED.,.F.,.F.,
  (2,2),(0.,6.28318530718),.PIECEWISE_BEZIER_KNOTS.);
#297 = CARTESIAN_POINT('',(0.,1.));
#298 = CARTESIAN_POINT('',(6.28318530718,1.));
#299 = ( GEOMETRIC_REPRESENTATION_CONTEXT(2) 
PARAMETRIC_REPRESENTATION_CONTEXT() REPRESENTATION_CONTEXT('2D SPACE',''
  ) );
#300 = PCURVE('',#75,#301);
#301 = DEFINITIONAL_REPRESENTATION('',(#302),#306);
#302 = CIRCLE('',#303,750.);
#303 = AXIS2_PLACEMENT_2D('',#304,#305);
#304 = CARTESIAN_POINT('',(0.,0.));
#305 = DIRECTION('',(1.,-0.));
#306 = ( GEOMETRIC_REPRESENTATION_CONTEXT(2) 
PARAMETRIC_REPRESENTATION_CONTEXT() REPRESENTATION_CONTEXT('2D SPACE',''
  ) );
#307 = ORIENTED_EDGE('',*,*,#236,.F.);
#308 = ADVANCED_FACE('',(#309,#312),#75,.F.);
#309 = FACE_BOUND('',#310,.T.);
#310 = EDGE_LOOP('',(#311));
#311 = ORIENTED_EDGE('',*,*,#287,.T.);
#312 = FACE_BOUND('',#313,.T.);
#313 = EDGE_LOOP('',(#314));
#314 = ORIENTED_EDGE('',*,*,#21,.F.);
#315 = ( GEOMETRIC_REPRESENTATION_CONTEXT(3) 
GLOBAL_UNCERTAINTY_ASSIGNED_CONTEXT((#319)) GLOBAL_UNIT_ASSIGNED_CONTEXT
((#316,#317,#318)) REPRESENTATION_CONTEXT('Context #1',
  '3D Context with UNIT and UNCERTAINTY') );
#316 = ( LENGTH_UNIT() NAMED_UNIT(*) SI_UNIT(.MILLI.,.METRE.) );
#317 = ( NAMED_UNIT(*) PLANE_ANGLE_UNIT() SI_UNIT($,.RADIAN.) );
#318 = ( NAMED_UNIT(*) SI_UNIT($,.STERADIAN.) SOLID_ANGLE_UNIT() );
#319 = UNCERTAINTY_MEASURE_WITH_UNIT(LENGTH_MEASURE(1.E-04),#316,
  'distance_accuracy_value','confusion accuracy');
#320 = PRODUCT_RELATED_PRODUCT_CATEGORY('part',$,(#7));
ENDSEC;
END-ISO-10303-21;
