ISO-10303-21;
HEADER;
FILE_DESCRIPTION(('Open CASCADE Model'),'2;1');
FILE_NAME('Open CASCADE Shape Model','2026-08-20T16:13:37',('Author'),(
    'Open CASCADE'),'Open CASCADE STEP processor 7.9','Open CASCADE 7.9'
  ,'Unknown');
FILE_SCHEMA(('AUTOMOTIVE_DESIGN { 1 0 10303 214 1 1 1 1 }'));
ENDSEC;
DATA;
#1 = APPLICATION_PROTOCOL_DEFINITION('international standard',
  'automotive_design',2000,#2);
#2 = APPLICATION_CONTEXT(
  'core data for automotive mechanical design processes');
#3 = SHAPE_DEFINITION_REPRESENTATION(#4,#10);
#4 = PRODUCT_DEFINITION_SHAPE('','',#5);
#5 = PRODUCT_DEFINITION('design','',#6,#9);
#6 = PRODUCT_DEFINITION_FORMATION('','',#7);
#7 = PRODUCT('Open CASCADE STEP translator 7.9 1',
  'Open CASCADE STEP translator 7.9 1','',(#8));
#8 = PRODUCT_CONTEXT('',#2,'mechanical');
#9 = PRODUCT_DEFINITION_CONTEXT('part definition',#2,'design');
#10 = ADVANCED_BREP_SHAPE_REPRESENTATION('',(#11,#15),#172);
#11 = AXIS2_PLACEMENT_3D('',#12,#13,#14);
#12 = CARTESIAN_POINT('',(0.,0.,0.));
#13 = DIRECTION('',(0.,0.,1.));
#14 = DIRECTION('',(1.,0.,-0.));
#15 = MANIFOLD_SOLID_BREP('',#16);
#16 = CLOSED_SHELL('',(#17,#164,#168));
#17 = ADVANCED_FACE('',(#18),#31,.T.);
#18 = FACE_BOUND('',#19,.T.);
#19 = EDGE_LOOP('',(#20,#86,#137,#163));
#20 = ORIENTED_EDGE('',*,*,#21,.T.);
#21 = EDGE_CURVE('',#22,#22,#24,.T.);
#22 = VERTEX_POINT('',#23);
#23 = CARTESIAN_POINT('',(0.,0.,850.));
#24 = SURFACE_CURVE('',#25,(#30,#74),.PCURVE_S1.);
#25 = CIRCLE('',#26,850.);
#26 = AXIS2_PLACEMENT_3D('',#27,#28,#29);
#27 = CARTESIAN_POINT('',(0.,0.,0.));
#28 = DIRECTION('',(1.,0.,-0.));
#29 = DIRECTION('',(0.,0.,1.));
#30 = PCURVE('',#31,#69);
#31 = SURFACE_OF_REVOLUTION('',#32,#66);
#32 = B_SPLINE_CURVE_WITH_KNOTS('',8,(#33,#34,#35,#36,#37,#38,#39,#40,
    #41,#42,#43,#44,#45,#46,#47,#48,#49,#50,#51,#52,#53,#54,#55,#56,#57,
    #58,#59,#60,#61,#62,#63,#64,#65),.UNSPECIFIED.,.F.,.F.,(9,6,6,6,6,9)
  ,(0.,0.209984527061,0.399254364833,0.589189233389,0.783535056669,1.),
  .UNSPECIFIED.);
#33 = CARTESIAN_POINT('',(0.,0.,850.));
#34 = CARTESIAN_POINT('',(1.862424852503,0.,941.36928994424));
#35 = CARTESIAN_POINT('',(151.91182503922,0.,965.05878837729));
#36 = CARTESIAN_POINT('',(153.24612606925,0.,993.19239011628));
#37 = CARTESIAN_POINT('',(297.1816143679,0.,1.020983891158E+03));
#38 = CARTESIAN_POINT('',(342.23510274594,0.,1.034753880678E+03));
#39 = CARTESIAN_POINT('',(437.10227619019,0.,1.053004720782E+03));
#40 = CARTESIAN_POINT('',(589.83514959651,0.,1.077476996065E+03));
#41 = CARTESIAN_POINT('',(750.44731082362,0.,1.094855826665E+03));
#42 = CARTESIAN_POINT('',(822.08087649443,0.,1.100253650897E+03));
#43 = CARTESIAN_POINT('',(901.49042565244,0.,1.105723318345E+03));
#44 = CARTESIAN_POINT('',(973.31505447556,0.,1.107722848275E+03));
#45 = CARTESIAN_POINT('',(1.049928367988E+03,0.,1.109218796967E+03));
#46 = CARTESIAN_POINT('',(1.200099011067E+03,0.,1.108179019195E+03));
#47 = CARTESIAN_POINT('',(1.350897162721E+03,0.,1.100968691945E+03));
#48 = CARTESIAN_POINT('',(1.425975180707E+03,0.,1.095662400976E+03));
#49 = CARTESIAN_POINT('',(1.501046174589E+03,0.,1.088917189627E+03));
#50 = CARTESIAN_POINT('',(1.576547725173E+03,0.,1.080649169184E+03));
#51 = CARTESIAN_POINT('',(1.650805351361E+03,0.,1.070770240344E+03));
#52 = CARTESIAN_POINT('',(1.802322898737E+03,0.,1.048069015974E+03));
#53 = CARTESIAN_POINT('',(1.951508913411E+03,0.,1.019310761912E+03));
#54 = CARTESIAN_POINT('',(2.029195122999E+03,0.,1.003720877797E+03));
#55 = CARTESIAN_POINT('',(2.099556224814E+03,0.,985.54144883412));
#56 = CARTESIAN_POINT('',(2.180702593351E+03,0.,967.83452125779));
#57 = CARTESIAN_POINT('',(2.250511132521E+03,0.,946.9058086042));
#58 = CARTESIAN_POINT('',(2.411309825115E+03,0.,902.19128298682));
#59 = CARTESIAN_POINT('',(2.560655578735E+03,0.,849.5021395522));
#60 = CARTESIAN_POINT('',(2.65911792231E+03,0.,823.76762919971));
#61 = CARTESIAN_POINT('',(2.691893562362E+03,0.,782.67320046118));
#62 = CARTESIAN_POINT('',(2.850132781314E+03,0.,767.96253653269));
#63 = CARTESIAN_POINT('',(2.837668958724E+03,0.,705.44342211836));
#64 = CARTESIAN_POINT('',(2.989932198053E+03,0.,692.06059571124));
#65 = CARTESIAN_POINT('',(3.E+03,0.,600.));
#66 = AXIS1_PLACEMENT('',#67,#68);
#67 = CARTESIAN_POINT('',(0.,0.,0.));
#68 = DIRECTION('',(1.,0.,0.));
#69 = DEFINITIONAL_REPRESENTATION('',(#70),#73);
#70 = B_SPLINE_CURVE_WITH_KNOTS('',1,(#71,#72),.UNSPECIFIED.,.F.,.F.,(2,
    2),(0.,6.28318530718),.PIECEWISE_BEZIER_KNOTS.);
#71 = CARTESIAN_POINT('',(0.,0.));
#72 = CARTESIAN_POINT('',(6.28318530718,0.));
#73 = ( GEOMETRIC_REPRESENTATION_CONTEXT(2) 
PARAMETRIC_REPRESENTATION_CONTEXT() REPRESENTATION_CONTEXT('2D SPACE',''
  ) );
#74 = PCURVE('',#75,#80);
#75 = PLANE('',#76);
#76 = AXIS2_PLACEMENT_3D('',#77,#78,#79);
#77 = CARTESIAN_POINT('',(0.,0.,0.));
#78 = DIRECTION('',(1.,0.,0.));
#79 = DIRECTION('',(-0.,0.,1.));
#80 = DEFINITIONAL_REPRESENTATION('',(#81),#85);
#81 = CIRCLE('',#82,850.);
#82 = AXIS2_PLACEMENT_2D('',#83,#84);
#83 = CARTESIAN_POINT('',(0.,0.));
#84 = DIRECTION('',(1.,-0.));
#85 = ( GEOMETRIC_REPRESENTATION_CONTEXT(2) 
PARAMETRIC_REPRESENTATION_CONTEXT() REPRESENTATION_CONTEXT('2D SPACE',''
  ) );
#86 = ORIENTED_EDGE('',*,*,#87,.T.);
#87 = EDGE_CURVE('',#22,#88,#90,.T.);
#88 = VERTEX_POINT('',#89);
#89 = CARTESIAN_POINT('',(3.E+03,0.,600.));
#90 = SEAM_CURVE('',#91,(#125,#131),.PCURVE_S1.);
#91 = B_SPLINE_CURVE_WITH_KNOTS('',8,(#92,#93,#94,#95,#96,#97,#98,#99,
    #100,#101,#102,#103,#104,#105,#106,#107,#108,#109,#110,#111,#112,
    #113,#114,#115,#116,#117,#118,#119,#120,#121,#122,#123,#124),
  .UNSPECIFIED.,.F.,.F.,(9,6,6,6,6,9),(0.,0.209984527061,0.399254364833,
    0.589189233389,0.783535056669,1.),.UNSPECIFIED.);
#92 = CARTESIAN_POINT('',(0.,0.,850.));
#93 = CARTESIAN_POINT('',(1.862424852503,0.,941.36928994424));
#94 = CARTESIAN_POINT('',(151.91182503922,0.,965.05878837729));
#95 = CARTESIAN_POINT('',(153.24612606925,0.,993.19239011628));
#96 = CARTESIAN_POINT('',(297.1816143679,0.,1.020983891158E+03));
#97 = CARTESIAN_POINT('',(342.23510274594,0.,1.034753880678E+03));
#98 = CARTESIAN_POINT('',(437.10227619019,0.,1.053004720782E+03));
#99 = CARTESIAN_POINT('',(589.83514959651,0.,1.077476996065E+03));
#100 = CARTESIAN_POINT('',(750.44731082362,0.,1.094855826665E+03));
#101 = CARTESIAN_POINT('',(822.08087649443,0.,1.100253650897E+03));
#102 = CARTESIAN_POINT('',(901.49042565244,0.,1.105723318345E+03));
#103 = CARTESIAN_POINT('',(973.31505447556,0.,1.107722848275E+03));
#104 = CARTESIAN_POINT('',(1.049928367988E+03,0.,1.109218796967E+03));
#105 = CARTESIAN_POINT('',(1.200099011067E+03,0.,1.108179019195E+03));
#106 = CARTESIAN_POINT('',(1.350897162721E+03,0.,1.100968691945E+03));
#107 = CARTESIAN_POINT('',(1.425975180707E+03,0.,1.095662400976E+03));
#108 = CARTESIAN_POINT('',(1.501046174589E+03,0.,1.088917189627E+03));
#109 = CARTESIAN_POINT('',(1.576547725173E+03,0.,1.080649169184E+03));
#110 = CARTESIAN_POINT('',(1.650805351361E+03,0.,1.070770240344E+03));
#111 = CARTESIAN_POINT('',(1.802322898737E+03,0.,1.048069015974E+03));
#112 = CARTESIAN_POINT('',(1.951508913411E+03,0.,1.019310761912E+03));
#113 = CARTESIAN_POINT('',(2.029195122999E+03,0.,1.003720877797E+03));
#114 = CARTESIAN_POINT('',(2.099556224814E+03,0.,985.54144883412));
#115 = CARTESIAN_POINT('',(2.180702593351E+03,0.,967.83452125779));
#116 = CARTESIAN_POINT('',(2.250511132521E+03,0.,946.9058086042));
#117 = CARTESIAN_POINT('',(2.411309825115E+03,0.,902.19128298682));
#118 = CARTESIAN_POINT('',(2.560655578735E+03,0.,849.5021395522));
#119 = CARTESIAN_POINT('',(2.65911792231E+03,0.,823.76762919971));
#120 = CARTESIAN_POINT('',(2.691893562362E+03,0.,782.67320046118));
#121 = CARTESIAN_POINT('',(2.850132781314E+03,0.,767.96253653269));
#122 = CARTESIAN_POINT('',(2.837668958724E+03,0.,705.44342211836));
#123 = CARTESIAN_POINT('',(2.989932198053E+03,0.,692.06059571124));
#124 = CARTESIAN_POINT('',(3.E+03,0.,600.));
#125 = PCURVE('',#31,#126);
#126 = DEFINITIONAL_REPRESENTATION('',(#127),#130);
#127 = B_SPLINE_CURVE_WITH_KNOTS('',1,(#128,#129),.UNSPECIFIED.,.F.,.F.,
  (2,2),(0.,1.),.PIECEWISE_BEZIER_KNOTS.);
#128 = CARTESIAN_POINT('',(0.,0.));
#129 = CARTESIAN_POINT('',(0.,1.));
#130 = ( GEOMETRIC_REPRESENTATION_CONTEXT(2) 
PARAMETRIC_REPRESENTATION_CONTEXT() REPRESENTATION_CONTEXT('2D SPACE',''
  ) );
#131 = PCURVE('',#31,#132);
#132 = DEFINITIONAL_REPRESENTATION('',(#133),#136);
#133 = B_SPLINE_CURVE_WITH_KNOTS('',1,(#134,#135),.UNSPECIFIED.,.F.,.F.,
  (2,2),(0.,1.),.PIECEWISE_BEZIER_KNOTS.);
#134 = CARTESIAN_POINT('',(6.28318530718,0.));
#135 = CARTESIAN_POINT('',(6.28318530718,1.));
#136 = ( GEOMETRIC_REPRESENTATION_CONTEXT(2) 
PARAMETRIC_REPRESENTATION_CONTEXT() REPRESENTATION_CONTEXT('2D SPACE',''
  ) );
#137 = ORIENTED_EDGE('',*,*,#138,.F.);
#138 = EDGE_CURVE('',#88,#88,#139,.T.);
#139 = SURFACE_CURVE('',#140,(#145,#151),.PCURVE_S1.);
#140 = CIRCLE('',#141,600.);
#141 = AXIS2_PLACEMENT_3D('',#142,#143,#144);
#142 = CARTESIAN_POINT('',(3.E+03,0.,0.));
#143 = DIRECTION('',(1.,0.,-0.));
#144 = DIRECTION('',(0.,0.,1.));
#145 = PCURVE('',#31,#146);
#146 = DEFINITIONAL_REPRESENTATION('',(#147),#150);
#147 = B_SPLINE_CURVE_WITH_KNOTS('',1,(#148,#149),.UNSPECIFIED.,.F.,.F.,
  (2,2),(0.,6.28318530718),.PIECEWISE_BEZIER_KNOTS.);
#148 = CARTESIAN_POINT('',(0.,1.));
#149 = CARTESIAN_POINT('',(6.28318530718,1.));
#150 = ( GEOMETRIC_REPRESENTATION_CONTEXT(2) 
PARAMETRIC_REPRESENTATION_CONTEXT() REPRESENTATION_CONTEXT('2D SPACE',''
  ) );
#151 = PCURVE('',#152,#157);
#152 = PLANE('',#153);
#153 = AXIS2_PLACEMENT_3D('',#154,#155,#156);
#154 = CARTESIAN_POINT('',(3.E+03,0.,0.));
#155 = DIRECTION('',(1.,0.,0.));
#156 = DIRECTION('',(0.,0.,1.));
#157 = DEFINITIONAL_REPRESENTATION('',(#158),#162);
#158 = CIRCLE('',#159,600.);
#159 = AXIS2_PLACEMENT_2D('',#160,#161);
#160 = CARTESIAN_POINT('',(0.,0.));
#161 = DIRECTION('',(1.,0.));
#162 = ( GEOMETRIC_REPRESENTATION_CONTEXT(2) 
PARAMETRIC_REPRESENTATION_CONTEXT() REPRESENTATION_CONTEXT('2D SPACE',''
  ) );
#163 = ORIENTED_EDGE('',*,*,#87,.F.);
#164 = ADVANCED_FACE('',(#165),#152,.T.);
#165 = FACE_BOUND('',#166,.T.);
#166 = EDGE_LOOP('',(#167));
#167 = ORIENTED_EDGE('',*,*,#138,.T.);
#168 = ADVANCED_FACE('',(#169),#75,.F.);
#169 = FACE_BOUND('',#170,.T.);
#170 = EDGE_LOOP('',(#171));
#171 = ORIENTED_EDGE('',*,*,#21,.F.);
#172 = ( GEOMETRIC_REPRESENTATION_CONTEXT(3) 
GLOBAL_UNCERTAINTY_ASSIGNED_CONTEXT((#176)) GLOBAL_UNIT_ASSIGNED_CONTEXT
((#173,#174,#175)) REPRESENTATION_CONTEXT('Context #1',
  '3D Context with UNIT and UNCERTAINTY') );
#173 = ( LENGTH_UNIT() NAMED_UNIT(*) SI_UNIT(.MILLI.,.METRE.) );
#174 = ( NAMED_UNIT(*) PLANE_ANGLE_UNIT() SI_UNIT($,.RADIAN.) );
#175 = ( NAMED_UNIT(*) SI_UNIT($,.STERADIAN.) SOLID_ANGLE_UNIT() );
#176 = UNCERTAINTY_MEASURE_WITH_UNIT(LENGTH_MEASURE(1.E-04),#173,
  'distance_accuracy_value','confusion accuracy');
#177 = PRODUCT_RELATED_PRODUCT_CATEGORY('part',$,(#7));
ENDSEC;
END-ISO-10303-21;
